<svg id="Layer_1" preserveAspectRatio="none" data-name="Layer 1" xmlns="http://www.w3.org/2000/svg" viewBox="0 0 762.618 146.045"><defs><style>.cls-1{opacity:0.3;}.cls-2{fill:#1b2326;}.cls-3{fill:#f5f2ee;}</style></defs><title>get_touch</title><g class="cls-1"><polygon class="cls-2" points="205.388 22.591 205.029 22.591 205.029 22.401 204.67 22.401 204.67 22.21 204.311 22.21 204.311 22.019 203.952 22.019 203.952 21.828 203.594 21.828 203.594 21.638 203.235 21.638 203.235 21.447 202.876 21.447 202.876 21.256 202.517 21.256 202.517 21.065 202.158 21.065 202.158 20.875 201.799 20.875 201.799 20.684 201.44 20.684 201.44 20.493 201.081 20.493 201.081 20.303 200.722 20.303 200.722 20.112 200.364 20.112 200.364 19.921 200.005 19.921 200.005 19.73 199.646 19.73 199.646 19.54 199.287 19.54 199.287 19.349 198.928 19.349 198.928 19.158 198.569 19.158 198.569 18.968 198.211 18.968 198.211 18.777 197.852 18.777 197.852 18.586 197.493 18.586 197.493 18.395 197.134 18.395 197.134 18.205 196.775 18.205 196.775 18.014 196.416 18.014 196.416 17.823 196.057 17.823 196.057 17.632 195.699 17.632 195.699 17.442 195.34 17.442 195.34 17.251 194.981 17.251 194.981 17.06 194.622 17.06 194.622 16.869 194.263 16.869 194.263 16.679 193.904 16.679 193.904 16.488 193.546 16.488 193.546 16.297 193.187 16.297 193.187 16.106 192.828 16.106 192.828 15.916 192.469 15.916 192.469 15.725 192.11 15.725 192.11 15.534 191.751 15.534 191.751 15.343 191.392 15.343 191.392 15.153 191.034 15.153 191.034 14.962 190.675 14.962 190.675 14.771 190.316 14.771 190.316 14.58 189.957 14.58 189.957 14.39 189.598 14.39 189.598 14.199 189.239 14.199 189.239 14.008 188.881 14.008 188.881 13.817 188.522 13.817 188.522 13.627 188.163 13.627 188.163 13.436 187.804 13.436 187.804 13.245 187.445 13.245 187.445 13.054 132.468 13.054 132.468 20.493 132.324 20.493 132.324 20.303 131.965 20.303 131.965 20.112 131.606 20.112 131.606 19.921 131.247 19.921 131.247 19.73 130.888 19.73 130.888 19.54 130.53 19.54 130.53 19.349 130.171 19.349 130.171 19.158 129.812 19.158 129.812 18.968 129.453 18.968 129.453 18.777 129.094 18.777 129.094 18.586 128.735 18.586 128.735 18.395 128.377 18.395 128.377 18.205 128.018 18.205 128.018 18.014 127.659 18.014 127.659 17.823 127.3 17.823 127.3 17.632 126.941 17.632 126.941 17.442 126.582 17.442 126.582 17.251 126.223 17.251 126.223 17.06 125.864 17.06 125.864 16.869 125.505 16.869 125.505 16.679 125.147 16.679 125.147 16.488 124.788 16.488 124.788 16.297 124.429 16.297 124.429 16.106 124.07 16.106 124.07 15.916 123.711 15.916 123.711 15.725 123.352 15.725 123.352 15.534 122.993 15.534 122.993 15.343 122.634 15.343 122.634 15.153 122.276 15.153 122.276 14.962 121.917 14.962 121.917 14.771 121.558 14.771 121.558 14.58 121.199 14.58 121.199 14.39 120.84 14.39 120.84 14.199 120.481 14.199 120.481 14.008 120.123 14.008 120.123 13.817 119.764 13.817 119.764 13.627 119.405 13.627 119.405 13.436 119.046 13.436 119.046 13.245 118.687 13.245 118.687 13.054 74.009 13.054 74.009 135.049 74.368 135.049 74.368 135.24 74.726 135.24 74.726 135.431 75.085 135.431 75.085 135.621 75.444 135.621 75.444 135.812 75.803 135.812 75.803 136.003 76.162 136.003 76.162 136.194 76.521 136.194 76.521 136.384 76.88 136.384 76.88 136.575 77.238 136.575 77.238 136.766 77.597 136.766 77.597 136.957 77.956 136.957 77.956 137.147 78.315 137.147 78.315 137.338 78.674 137.338 78.674 137.529 79.033 137.529 79.033 137.72 79.391 137.72 79.391 137.91 79.75 137.91 79.75 138.101 80.109 138.101 80.109 138.292 80.468 138.292 80.468 138.483 80.827 138.483 80.827 138.673 81.186 138.673 81.186 138.864 81.545 138.864 81.545 139.055 81.904 139.055 81.904 139.246 82.262 139.246 82.262 139.436 82.621 139.436 82.621 139.627 82.98 139.627 82.98 139.818 83.339 139.818 83.339 140.009 83.698 140.009 83.698 140.199 84.057 140.199 84.057 140.39 84.416 140.39 84.416 140.581 84.775 140.581 84.775 140.772 85.133 140.772 85.133 140.962 85.492 140.962 85.492 141.153 85.851 141.153 85.851 141.344 86.21 141.344 86.21 141.535 86.569 141.535 86.569 141.725 86.928 141.725 86.928 141.916 87.286 141.916 87.286 142.107 87.645 142.107 87.645 142.298 88.004 142.298 88.004 142.488 88.363 142.488 88.363 142.679 88.722 142.679 88.722 142.87 89.081 142.87 89.081 143.06 89.439 143.06 89.439 143.251 89.798 143.251 89.798 143.442 90.157 143.442 90.157 143.633 90.516 143.633 90.516 143.823 90.875 143.823 90.875 144.014 91.234 144.014 91.234 144.205 91.593 144.205 91.593 144.395 91.951 144.395 91.951 144.586 92.31 144.586 92.31 144.777 136.989 144.777 136.989 121.646 136.63 121.646 136.63 121.455 136.271 121.455 136.271 121.264 135.912 121.264 135.912 121.074 135.553 121.074 135.553 120.883 135.195 120.883 135.195 120.692 134.836 120.692 134.836 120.502 134.477 120.502 134.477 120.311 134.118 120.311 134.118 120.12 133.759 120.12 133.759 119.929 133.4 119.929 133.4 119.738 133.042 119.738 133.042 119.548 132.683 119.548 132.683 119.357 132.324 119.357 132.324 119.166 131.965 119.166 131.965 118.976 131.606 118.976 131.606 118.785 131.247 118.785 131.247 118.594 130.888 118.594 130.888 118.403 130.53 118.403 130.53 118.213 130.171 118.213 130.171 118.022 129.812 118.022 129.812 117.831 129.453 117.831 129.453 117.64 129.094 117.64 129.094 117.45 128.735 117.45 128.735 117.259 128.377 117.259 128.377 117.068 128.018 117.068 128.018 116.877 127.659 116.877 127.659 116.687 127.3 116.687 127.3 116.496 126.941 116.496 126.941 116.305 126.582 116.305 126.582 116.114 126.223 116.114 126.223 115.924 125.864 115.924 125.864 115.733 125.505 115.733 125.505 115.542 125.147 115.542 125.147 115.351 124.788 115.351 124.788 115.161 124.429 115.161 124.429 114.97 124.07 114.97 124.07 114.779 123.711 114.779 123.711 114.588 123.352 114.588 123.352 114.398 122.993 114.398 122.993 114.207 122.634 114.207 122.634 114.016 122.276 114.016 122.276 113.825 121.917 113.825 121.917 113.635 121.558 113.635 121.558 113.444 121.199 113.444 121.199 113.253 120.84 113.253 120.84 113.063 120.481 113.063 120.481 112.872 120.123 112.872 120.123 112.681 119.764 112.681 119.764 112.49 119.405 112.49 119.405 112.299 119.046 112.299 119.046 112.109 118.687 112.109 118.687 111.918 114.967 111.918 114.967 95.187 130.81 95.187 130.81 70.947 130.451 70.947 130.451 70.756 130.092 70.756 130.092 70.565 129.733 70.565 129.733 70.375 129.374 70.375 129.374 70.184 129.016 70.184 129.016 69.993 128.657 69.993 128.657 69.802 128.298 69.802 128.298 69.612 127.939 69.612 127.939 69.421 127.58 69.421 127.58 69.23 127.221 69.23 127.221 69.039 126.863 69.039 126.863 68.849 126.504 68.849 126.504 68.658 126.145 68.658 126.145 68.467 125.786 68.467 125.786 68.276 125.427 68.276 125.427 68.086 125.068 68.086 125.068 67.895 124.709 67.895 124.709 67.704 124.351 67.704 124.351 67.513 123.992 67.513 123.992 67.323 123.633 67.323 123.633 67.132 123.274 67.132 123.274 66.941 122.915 66.941 122.915 66.75 122.556 66.75 122.556 66.56 122.197 66.56 122.197 66.369 121.839 66.369 121.839 66.178 121.48 66.178 121.48 65.987 121.121 65.987 121.121 65.797 120.762 65.797 120.762 65.606 120.403 65.606 120.403 65.415 120.044 65.415 120.044 65.224 119.685 65.224 119.685 65.034 119.326 65.034 119.326 64.843 118.967 64.843 118.967 64.652 118.609 64.652 118.609 64.461 118.25 64.461 118.25 64.271 117.891 64.271 117.891 64.08 117.532 64.08 117.532 63.889 117.173 63.889 117.173 63.698 116.814 63.698 116.814 63.508 116.455 63.508 116.455 63.317 116.097 63.317 116.097 63.126 115.738 63.126 115.738 62.935 115.379 62.935 115.379 62.745 115.02 62.745 115.02 62.554 114.967 62.554 114.967 45.914 136.989 45.914 136.989 38.474 137.133 38.474 137.133 38.665 137.492 38.665 137.492 38.856 137.85 38.856 137.85 39.047 138.209 39.047 138.209 39.238 138.568 39.238 138.568 39.428 138.927 39.428 138.927 39.619 139.286 39.619 139.286 39.81 139.645 39.81 139.645 40.001 140.003 40.001 140.003 40.191 140.362 40.191 140.362 40.382 140.721 40.382 140.721 40.573 141.08 40.573 141.08 40.764 141.439 40.764 141.439 40.954 141.798 40.954 141.798 41.145 142.157 41.145 142.157 41.336 142.515 41.336 142.515 41.527 142.874 41.527 142.874 41.717 143.233 41.717 143.233 41.908 143.592 41.908 143.592 42.099 143.951 42.099 143.951 42.29 144.31 42.29 144.31 42.48 144.669 42.48 144.669 42.671 145.027 42.671 145.027 42.862 145.386 42.862 145.386 43.053 145.745 43.053 145.745 43.243 146.104 43.243 146.104 43.434 146.463 43.434 146.463 43.625 146.822 43.625 146.822 43.816 147.181 43.816 147.181 44.006 147.54 44.006 147.54 44.197 147.898 44.197 147.898 44.388 148.257 44.388 148.257 44.579 148.616 44.579 148.616 44.769 148.628 44.769 148.628 135.049 148.987 135.049 148.987 135.24 149.346 135.24 149.346 135.431 149.705 135.431 149.705 135.621 150.064 135.621 150.064 135.812 150.422 135.812 150.422 136.003 150.781 136.003 150.781 136.194 151.14 136.194 151.14 136.384 151.499 136.384 151.499 136.575 151.858 136.575 151.858 136.766 152.217 136.766 152.217 136.957 152.575 136.957 152.575 137.147 152.934 137.147 152.934 137.338 153.293 137.338 153.293 137.529 153.652 137.529 153.652 137.72 154.011 137.72 154.011 137.91 154.37 137.91 154.37 138.101 154.729 138.101 154.729 138.292 155.087 138.292 155.087 138.483 155.446 138.483 155.446 138.673 155.805 138.673 155.805 138.864 156.164 138.864 156.164 139.055 156.523 139.055 156.523 139.246 156.882 139.246 156.882 139.436 157.241 139.436 157.241 139.627 157.6 139.627 157.6 139.818 157.958 139.818 157.958 140.009 158.317 140.009 158.317 140.199 158.676 140.199 158.676 140.39 159.035 140.39 159.035 140.581 159.394 140.581 159.394 140.772 159.753 140.772 159.753 140.962 160.112 140.962 160.112 141.153 160.471 141.153 160.471 141.344 160.829 141.344 160.829 141.535 161.188 141.535 161.188 141.725 161.547 141.725 161.547 141.916 161.906 141.916 161.906 142.107 162.265 142.107 162.265 142.298 162.624 142.298 162.624 142.488 162.983 142.488 162.983 142.679 163.341 142.679 163.341 142.87 163.7 142.87 163.7 143.06 164.059 143.06 164.059 143.251 164.418 143.251 164.418 143.442 164.777 143.442 164.777 143.633 165.136 143.633 165.136 143.823 165.494 143.823 165.494 144.014 165.853 144.014 165.853 144.205 166.212 144.205 166.212 144.395 166.571 144.395 166.571 144.586 166.93 144.586 166.93 144.777 189.586 144.777 189.586 45.914 205.747 45.914 205.747 22.782 205.388 22.782 205.388 22.591"/><polygon class="cls-2" points="285.233 22.591 284.875 22.591 284.875 22.401 284.516 22.401 284.516 22.21 284.157 22.21 284.157 22.019 283.798 22.019 283.798 21.828 283.439 21.828 283.439 21.638 283.08 21.638 283.08 21.447 282.721 21.447 282.721 21.256 282.363 21.256 282.363 21.065 282.004 21.065 282.004 20.875 281.645 20.875 281.645 20.684 281.286 20.684 281.286 20.493 280.927 20.493 280.927 20.303 280.568 20.303 280.568 20.112 280.21 20.112 280.21 19.921 279.851 19.921 279.851 19.73 279.492 19.73 279.492 19.54 279.133 19.54 279.133 19.349 278.774 19.349 278.774 19.158 278.415 19.158 278.415 18.968 278.057 18.968 278.057 18.777 277.698 18.777 277.698 18.586 277.339 18.586 277.339 18.395 276.98 18.395 276.98 18.205 276.621 18.205 276.621 18.014 276.262 18.014 276.262 17.823 275.903 17.823 275.903 17.632 275.545 17.632 275.545 17.442 275.186 17.442 275.186 17.251 274.827 17.251 274.827 17.06 274.468 17.06 274.468 16.869 274.109 16.869 274.109 16.679 273.75 16.679 273.75 16.488 273.391 16.488 273.391 16.297 273.032 16.297 273.032 16.106 272.673 16.106 272.673 15.916 272.315 15.916 272.315 15.725 271.956 15.725 271.956 15.534 271.597 15.534 271.597 15.343 271.238 15.343 271.238 15.153 270.879 15.153 270.879 14.962 270.52 14.962 270.52 14.771 270.162 14.771 270.162 14.58 269.803 14.58 269.803 14.39 269.444 14.39 269.444 14.199 269.085 14.199 269.085 14.008 268.726 14.008 268.726 13.817 268.367 13.817 268.367 13.627 268.008 13.627 268.008 13.436 267.65 13.436 267.65 13.245 267.291 13.245 267.291 13.054 244.635 13.054 244.635 135.049 244.994 135.049 244.994 135.24 245.352 135.24 245.352 135.431 245.711 135.431 245.711 135.621 246.07 135.621 246.07 135.812 246.429 135.812 246.429 136.003 246.788 136.003 246.788 136.194 247.147 136.194 247.147 136.384 247.506 136.384 247.506 136.575 247.864 136.575 247.864 136.766 248.223 136.766 248.223 136.957 248.582 136.957 248.582 137.147 248.941 137.147 248.941 137.338 249.3 137.338 249.3 137.529 249.659 137.529 249.659 137.72 250.017 137.72 250.017 137.91 250.376 137.91 250.376 138.101 250.735 138.101 250.735 138.292 251.094 138.292 251.094 138.483 251.453 138.483 251.453 138.673 251.812 138.673 251.812 138.864 252.17 138.864 252.17 139.055 252.529 139.055 252.529 139.246 252.888 139.246 252.888 139.436 253.247 139.436 253.247 139.627 253.606 139.627 253.606 139.818 253.965 139.818 253.965 140.009 254.324 140.009 254.324 140.199 254.682 140.199 254.682 140.39 255.041 140.39 255.041 140.581 255.4 140.581 255.4 140.772 255.759 140.772 255.759 140.962 256.118 140.962 256.118 141.153 256.477 141.153 256.477 141.344 256.836 141.344 256.836 141.535 257.194 141.535 257.194 141.725 257.553 141.725 257.553 141.916 257.912 141.916 257.912 142.107 258.271 142.107 258.271 142.298 258.63 142.298 258.63 142.488 258.989 142.488 258.989 142.679 259.348 142.679 259.348 142.87 259.707 142.87 259.707 143.06 260.065 143.06 260.065 143.251 260.424 143.251 260.424 143.442 260.783 143.442 260.783 143.633 261.142 143.633 261.142 143.823 261.501 143.823 261.501 144.014 261.86 144.014 261.86 144.205 262.219 144.205 262.219 144.395 262.577 144.395 262.577 144.586 262.936 144.586 262.936 144.777 285.592 144.777 285.592 22.782 285.233 22.782 285.233 22.591"/><polygon class="cls-2" points="363.655 22.591 363.297 22.591 363.297 22.401 362.938 22.401 362.938 22.21 362.579 22.21 362.579 22.019 362.22 22.019 362.22 21.828 361.861 21.828 361.861 21.638 361.502 21.638 361.502 21.447 361.143 21.447 361.143 21.256 360.785 21.256 360.785 21.065 360.426 21.065 360.426 20.875 360.067 20.875 360.067 20.684 359.708 20.684 359.708 20.493 359.349 20.493 359.349 20.303 358.99 20.303 358.99 20.112 358.632 20.112 358.632 19.921 358.273 19.921 358.273 19.73 357.914 19.73 357.914 19.54 357.555 19.54 357.555 19.349 357.196 19.349 357.196 19.158 356.837 19.158 356.837 18.968 356.479 18.968 356.479 18.777 356.12 18.777 356.12 18.586 355.761 18.586 355.761 18.395 355.402 18.395 355.402 18.205 355.043 18.205 355.043 18.014 354.684 18.014 354.684 17.823 354.325 17.823 354.325 17.632 353.967 17.632 353.967 17.442 353.608 17.442 353.608 17.251 353.249 17.251 353.249 17.06 352.89 17.06 352.89 16.869 352.531 16.869 352.531 16.679 352.172 16.679 352.172 16.488 351.813 16.488 351.813 16.297 351.454 16.297 351.454 16.106 351.095 16.106 351.095 15.916 350.737 15.916 350.737 15.725 350.378 15.725 350.378 15.534 350.019 15.534 350.019 15.343 349.66 15.343 349.66 15.153 349.301 15.153 349.301 14.962 348.942 14.962 348.942 14.771 348.584 14.771 348.584 14.58 348.225 14.58 348.225 14.39 347.866 14.39 347.866 14.199 347.507 14.199 347.507 14.008 347.148 14.008 347.148 13.817 346.789 13.817 346.789 13.627 346.43 13.627 346.43 13.436 346.072 13.436 346.072 13.245 345.713 13.245 345.713 13.054 324.483 13.054 324.483 20.684 324.405 20.684 324.353 20.493 324.046 20.493 323.994 20.303 323.687 20.303 323.635 20.112 323.329 20.112 323.277 19.921 322.97 19.921 322.918 19.73 322.611 19.73 322.559 19.54 322.252 19.54 322.2 19.349 321.893 19.349 321.841 19.158 321.534 19.158 321.482 18.968 321.176 18.968 321.123 18.777 320.817 18.777 320.765 18.586 320.458 18.586 320.406 18.395 320.099 18.395 320.047 18.205 319.74 18.205 319.688 18.014 319.381 18.014 319.329 17.823 319.023 17.823 318.97 17.632 318.664 17.632 318.611 17.442 318.305 17.442 318.252 17.251 317.946 17.251 317.893 17.06 317.587 17.06 317.535 16.869 317.228 16.869 317.176 16.679 316.869 16.679 316.817 16.488 316.511 16.488 316.458 16.297 316.152 16.297 316.099 16.106 315.793 16.106 315.74 15.916 315.434 15.916 315.382 15.725 315.075 15.725 315.023 15.534 314.716 15.534 314.664 15.343 314.358 15.343 314.305 15.153 313.999 15.153 313.946 14.962 313.64 14.962 313.587 14.771 313.281 14.771 313.229 14.58 312.922 14.58 312.87 14.39 312.563 14.39 312.511 14.199 312.204 14.199 312.152 14.008 311.845 14.008 311.793 13.817 311.487 13.817 311.434 13.627 311.128 13.627 311.075 13.436 310.769 13.436 310.717 13.245 310.41 13.245 310.358 13.054 290.261 13.054 290.261 135.049 290.619 135.049 290.619 135.24 290.978 135.24 290.978 135.431 291.337 135.431 291.337 135.621 291.696 135.621 291.696 135.812 292.055 135.812 292.055 136.003 292.414 136.003 292.414 136.194 292.773 136.194 292.773 136.384 293.132 136.384 293.132 136.575 293.49 136.575 293.49 136.766 293.849 136.766 293.849 136.957 294.208 136.957 294.208 137.147 294.567 137.147 294.567 137.338 294.926 137.338 294.926 137.529 295.285 137.529 295.285 137.72 295.643 137.72 295.643 137.91 296.002 137.91 296.002 138.101 296.361 138.101 296.361 138.292 296.72 138.292 296.72 138.483 297.079 138.483 297.079 138.673 297.438 138.673 297.438 138.864 297.796 138.864 297.796 139.055 298.155 139.055 298.155 139.246 298.514 139.246 298.514 139.436 298.873 139.436 298.873 139.627 299.232 139.627 299.232 139.818 299.591 139.818 299.591 140.009 299.95 140.009 299.95 140.199 300.308 140.199 300.308 140.39 300.667 140.39 300.667 140.581 301.026 140.581 301.026 140.772 301.385 140.772 301.385 140.962 301.744 140.962 301.744 141.153 302.103 141.153 302.103 141.344 302.461 141.344 302.461 141.535 302.82 141.535 302.82 141.725 303.179 141.725 303.179 141.916 303.538 141.916 303.538 142.107 303.897 142.107 303.897 142.298 304.256 142.298 304.256 142.488 304.615 142.488 304.615 142.679 304.973 142.679 304.973 142.87 305.332 142.87 305.332 143.06 305.691 143.06 305.691 143.251 306.05 143.251 306.05 143.442 306.409 143.442 306.409 143.633 306.768 143.633 306.768 143.823 307.127 143.823 307.127 144.014 307.486 144.014 307.486 144.205 307.845 144.205 307.845 144.395 308.203 144.395 308.203 144.586 308.562 144.586 308.562 144.777 329.792 144.777 329.792 137.147 329.87 137.147 329.923 137.338 330.229 137.338 330.281 137.529 330.588 137.529 330.64 137.72 330.947 137.72 330.999 137.91 331.306 137.91 331.358 138.101 331.664 138.101 331.717 138.292 332.023 138.292 332.076 138.483 332.382 138.483 332.435 138.673 332.741 138.673 332.794 138.864 333.1 138.864 333.152 139.055 333.459 139.055 333.511 139.246 333.818 139.246 333.87 139.436 334.176 139.436 334.229 139.627 334.535 139.627 334.588 139.818 334.894 139.818 334.947 140.009 335.253 140.009 335.306 140.199 335.612 140.199 335.664 140.39 335.971 140.39 336.023 140.581 336.329 140.581 336.382 140.772 336.688 140.772 336.741 140.962 337.047 140.962 337.1 141.153 337.406 141.153 337.459 141.344 337.765 141.344 337.817 141.535 338.124 141.535 338.176 141.725 338.483 141.725 338.535 141.916 338.842 141.916 338.894 142.107 339.201 142.107 339.253 142.298 339.559 142.298 339.612 142.488 339.918 142.488 339.971 142.679 340.277 142.679 340.329 142.87 340.636 142.87 340.688 143.06 340.995 143.06 341.047 143.251 341.354 143.251 341.406 143.442 341.713 143.442 341.765 143.633 342.072 143.633 342.124 143.823 342.43 143.823 342.482 144.014 342.789 144.014 342.841 144.205 343.148 144.205 343.2 144.395 343.507 144.395 343.559 144.586 343.866 144.586 343.918 144.777 364.014 144.777 364.014 22.782 363.655 22.782 363.655 22.591"/><path class="cls-2" d="M634.457,30.093H634.1V29.9h-.358v-.19h-.359v-.191h-.359V29.33h-.359v-.19H632.3v-.191h-.359v-.191h-.359v-.191h-.358v-.19h-.359v-.191h-.359v-.191h-.359V27.8h-.359v-.191h-.359v-.191h-.358v-.191h-.359v-.19h-.359V26.85H628V26.66h-.359v-.19h-.359v-.191h-.359v-.191h-.358V25.9H626.2v-.19h-.359v-.191h-.359v-.191h-.359v-.191h-.359v-.19h-.358v-.191h-.359v-.191h-.359v-.191h-.359v-.19h-.359v-.191h-.359V23.8h-.359v-.19H621.9v-.191h-.359v-.191h-.359v-.191h-.359v-.19h-.359v-.191H620.1v-.191h-.358v-.19h-.359v-.191h-.359v-.191h-.359V21.7h-.359v-.19h-.359v-.191h-.359v-.191h-.358v-.19h-.359v-.191h-.359v-.191H593.858V23.8h-.12v-.19h-.358v-.191h-.359v-.191h-.359v-.191H592.3v-.19h-.359v-.191h-.359v-.191h-.358v-.19h-.359v-.191h-.359v-.191h-.359V21.7h-.359v-.19h-.359v-.191h-.359v-.191h-.358v-.19h-.359v-.191H588v-.191H565.34v95.3l0,.092a34.375,34.375,0,0,0,3.094,13.72,23.938,23.938,0,0,0,7.485,9.61,18.7,18.7,0,0,0,3.592,2.217c.113.059.224.122.339.179s.238.13.359.19.237.13.359.19.237.13.359.191.237.129.358.19.238.13.36.191.237.129.358.19.237.13.359.191.237.13.359.19.237.13.359.191.237.13.359.191.237.13.358.19.238.13.359.191.238.13.359.191.237.13.359.19.237.13.359.191.237.129.358.19.238.13.36.191.237.13.358.191.238.13.359.19.238.13.36.191.236.129.358.19.237.13.359.191.237.13.359.19.237.13.358.191.238.13.359.191.238.13.359.191.238.13.359.19.237.13.359.191.237.13.359.191.237.13.358.19.238.13.36.191.237.129.358.19.237.13.359.191.237.13.359.191.237.13.359.191.237.13.358.191.238.13.36.191.237.13.359.191.237.129.358.19.237.13.359.19.237.13.359.191.237.13.359.191.237.13.359.191.237.13.358.191.238.13.359.19.238.13.36.191c.083.044.161.1.245.139a25.233,25.233,0,0,0,12.624,2.959c6.068,0,11.063-1.528,14.848-4.541a24.348,24.348,0,0,0,7.616-9.552,34.448,34.448,0,0,0,3.121-13.779l0-95.391h-.359Z" transform="translate(-18.744 -7.502)"/><path class="cls-2" d="M85.148,43.326a25.027,25.027,0,0,0-7.677-9.794A21.114,21.114,0,0,0,74.2,31.521c-.12-.062-.237-.13-.359-.191s-.237-.13-.359-.19-.237-.13-.359-.191-.237-.13-.359-.191-.237-.13-.359-.191-.237-.13-.359-.19-.237-.13-.359-.191-.237-.13-.359-.191-.237-.13-.359-.191-.237-.13-.359-.19-.237-.13-.359-.191-.237-.13-.359-.191-.237-.13-.359-.191-.237-.13-.359-.19-.237-.13-.359-.191-.237-.13-.359-.191-.237-.13-.359-.191-.237-.13-.359-.19-.237-.13-.359-.191-.237-.13-.359-.191-.237-.13-.359-.191-.237-.13-.359-.19-.237-.13-.359-.191-.237-.13-.359-.191-.237-.13-.359-.191-.237-.13-.359-.19-.237-.13-.359-.191-.237-.13-.359-.191-.237-.13-.359-.191-.237-.13-.359-.19-.237-.13-.359-.191-.237-.13-.359-.191-.237-.13-.359-.191-.237-.13-.359-.19-.237-.13-.359-.191-.237-.13-.359-.191-.237-.13-.359-.191-.237-.13-.359-.191-.237-.13-.359-.19-.237-.13-.359-.19-.237-.131-.359-.191-.237-.13-.359-.191-.237-.13-.359-.191-.237-.13-.359-.191-.237-.13-.359-.191-.237-.13-.359-.19-.237-.13-.359-.191-.237-.13-.359-.19-.237-.131-.359-.191-.237-.13-.359-.191a25.436,25.436,0,0,0-11.9-2.7A24.689,24.689,0,0,0,29.383,23.8a24.167,24.167,0,0,0-7.492,9.736A34.115,34.115,0,0,0,18.77,47.157l0,68.652a34.543,34.543,0,0,0,2.1,13.75,23.913,23.913,0,0,0,6.786,9.628,17.042,17.042,0,0,0,4.225,2.734c.116.067.238.125.356.189s.24.126.359.191.24.126.359.19.24.126.359.191.24.126.359.191.24.126.359.191.24.126.359.191.24.126.359.191.24.126.359.19.24.126.358.19.24.126.359.191.24.126.359.191.24.126.359.191.24.126.359.191.24.126.359.19.24.126.359.191.24.126.359.191.24.126.359.19.24.126.359.191.24.126.359.19.24.126.359.191.24.126.359.19.24.126.359.191.24.126.359.191.24.126.359.191.24.126.359.19.24.126.359.191.24.126.359.191.24.126.359.191.24.126.359.191.24.126.359.19.24.126.359.191.24.126.359.191.24.126.359.19.24.126.359.191.24.126.359.191.24.126.359.191.24.126.359.19.24.126.359.191.24.126.359.191.24.126.359.19.24.126.359.191.24.126.359.191.24.126.359.19.24.126.359.191.24.126.359.191l.131.076a21.851,21.851,0,0,0,11.448,2.777,18.681,18.681,0,0,0,10.186-3.05l.025.066h.288l.07.191h.288l.071.191h.288l.071.191h.288l.071.19H71.9l.071.191h.288l.071.191h.288l.071.19h.288l.071.191h.288l.071.191H88.244V88.746h-.359v-.191h-.359v-.191h-.359v-.19h-.359v-.191H86.45v-.191h-.359V87.6h-.359v-.191h-.359V87.22h-.359V87.03h-.359v-.191H84.3v-.19h-.359v-.191h-.359v-.191H83.22v-.19h-.359v-.191H82.5v-.191h-.359V85.5h-.359v-.19h-.359v-.191h-.359v-.191h-.359v-.191h-.359v-.19H79.99v-.191h-.359v-.191h-.359v-.191h-.359v-.19h-.359V83.6H78.2v-.191h-.359v-.191h-.359v-.19h-.359v-.191H76.76v-.191H76.4v-.191h-.359v-.19h-.359V82.07h-.359v-.191h-.359v-.191h-.359V81.5h-.359v-.191h-.359v-.191h-.359v-.191h-.359v-.19h-.359v-.191h-.359v-.191H72.1v-.19h-.359v-.191h-.359v-.191h-.359V79.59H70.66V79.4H70.3v-.19h-.359v-.191H59.726V74.413h.12V74.6H60.2v.191h.359v.191h.359v.19h.359v.191h.359v.191H62v.191h.359v.19h.359v.191h.359v.191h.359v.19h.359V76.7h.359v.191h.359v.191h.359v.191h.359v.19h.359v.191H88.244V56.98l0-.1A34.035,34.035,0,0,0,85.148,43.326Z" transform="translate(-18.744 -7.502)"/><path class="cls-2" d="M558.844,43.326a25.027,25.027,0,0,0-7.677-9.794,21.114,21.114,0,0,0-3.271-2.011c-.12-.062-.237-.13-.359-.191s-.237-.13-.359-.19-.237-.13-.359-.191-.237-.13-.359-.191-.237-.13-.359-.191-.237-.13-.359-.19-.237-.13-.359-.191-.237-.13-.359-.191-.237-.13-.359-.191-.237-.13-.359-.19-.237-.13-.359-.191-.237-.13-.359-.191-.237-.13-.359-.191-.237-.13-.359-.19-.237-.13-.359-.191-.237-.13-.359-.191-.237-.13-.359-.191-.237-.13-.359-.19-.237-.13-.359-.191-.237-.13-.359-.191-.237-.13-.359-.191-.237-.13-.359-.19-.237-.13-.359-.191-.237-.13-.359-.191-.237-.13-.359-.191-.237-.13-.359-.19-.237-.13-.359-.191-.237-.13-.359-.191-.237-.13-.359-.191-.237-.13-.359-.19-.237-.13-.359-.191-.237-.13-.359-.191-.237-.13-.359-.191-.237-.13-.359-.19-.237-.13-.359-.191-.237-.13-.359-.191-.237-.13-.359-.191-.237-.13-.359-.191-.237-.13-.359-.19-.237-.13-.359-.19-.237-.131-.359-.191-.237-.13-.359-.191-.237-.13-.359-.191-.237-.13-.359-.191-.237-.13-.359-.191-.237-.13-.359-.19-.237-.13-.359-.191-.237-.13-.359-.19-.237-.131-.359-.191-.237-.13-.359-.191a25.436,25.436,0,0,0-11.9-2.7A24.689,24.689,0,0,0,503.079,23.8a24.167,24.167,0,0,0-7.492,9.736q-.35.733-.662,1.494v-4.75h-.359v-.191h-.359V29.9h-.359v-.19h-.359v-.191h-.359V29.33h-.359v-.19h-.359v-.191h-.359v-.191H491.7v-.191h-.359v-.19h-.359v-.191h-.359v-.191h-.359V27.8H489.9v-.191h-.359v-.191h-.359v-.191h-.359v-.19h-.359V26.85h-.359V26.66h-.359v-.19h-.359v-.191h-.359v-.191h-.359V25.9h-.359v-.19h-.359v-.191h-.359v-.191h-.359v-.191h-.359v-.19h-.359v-.191h-.359v-.191H483.8v-.191h-.359v-.19h-.359v-.191h-.359V23.8h-.359v-.19h-.359v-.191h-.359v-.191h-.359v-.191h-.359v-.19h-.359v-.191h-.359v-.191h-.359v-.19h-.359v-.191h-.359v-.191h-.359V21.7h-.359v-.19h-.359v-.191H477.7v-.191h-.359v-.19h-.359v-.191h-.359v-.191H421.646V43.687H422v.191h.359v.191h.359v.19h.359v.191h.359v.191h.359v.19h.359v.191h.359v.191h.359V45.4h.359v.191h.359v.19h.359v.191h.359v.191h.359v.19h.359v.191h.359v.191h.359v.191h.359v.19h.359v.191h.359V47.5h.359v.191h.359v.19h.359v.191h.359v.191h.359v.191h.359v.19h.359v.191h.359v.191h.359v.191h.359v.19h.359V49.6h.359v.191h.359v.191h.359v.19h.359v.191h.359v.191h.359v.191h.359v.19h.359v.191H436v.191h.359v.191h.359v.19h.359v.191h.359v.191h.359v.19h.012v90.28h.359v.191h.359v.191h.359v.19h.359v.191h.359v.191h.359v.19h.359v.191h.359v.191h.359v.191h.359v.19h.359v.191h.359v.191h.359v.19h.359v.191h.359v.191h.359v.191h.359v.19h.359v.191h.359v.191h.359v.19h.359v.191h.359v.191h.359v.191h.359v.19h.359v.191h.359v.191h.359v.191h.359v.19h.359v.191h.359v.191h.359v.191h.359v.19h.359v.191h.359v.191h.359v.19h.359v.191h.359v.191h.359v.191h.359v.19h.359v.191h.359v.191h.359v.19h.359v.191h.359v.191h.359v.191h.359v.19h.359v.191h.359v.191h.359v.19h.359v.191h.359v.191h22.656V53.415h13.7l0,62.439,0,.092a34.371,34.371,0,0,0,3.094,13.72,23.941,23.941,0,0,0,7.485,9.61,18.693,18.693,0,0,0,3.593,2.218c.112.059.223.121.337.179s.237.13.359.191.237.13.359.19.237.13.359.191.237.13.359.191.237.13.359.191.237.13.359.19.237.13.359.191.237.13.359.191.237.13.359.191.237.13.359.191.237.13.359.19.237.13.359.191.238.13.359.191.237.13.359.19.237.13.359.191.237.13.359.191.237.13.359.191.237.13.359.19.237.13.359.191.237.13.359.191.237.13.359.191.237.13.359.19.237.13.359.191.237.13.359.191.237.13.359.191.237.13.359.19.237.13.359.191.237.13.359.191.237.13.359.191.237.13.359.19.237.13.359.191.237.13.359.191.237.13.359.191.237.13.359.19.237.13.359.191.237.13.359.191.237.13.359.191.237.13.359.19.237.13.359.191.237.13.359.19.237.13.359.191.237.13.359.191.237.13.359.191.237.13.359.191.237.13.359.191.237.13.359.19c.084.044.162.1.247.14a25.234,25.234,0,0,0,12.623,2.959c6.068,0,11.063-1.528,14.848-4.541a24.348,24.348,0,0,0,7.616-9.552,34.448,34.448,0,0,0,3.121-13.779l0-68.695,0-.1A34.035,34.035,0,0,0,558.844,43.326Z" transform="translate(-18.744 -7.502)"/><path class="cls-2" d="M704.6,43.326a25.027,25.027,0,0,0-7.677-9.794,21.1,21.1,0,0,0-3.272-2.011c-.12-.062-.237-.13-.359-.191s-.237-.13-.358-.19-.238-.13-.36-.191-.237-.13-.358-.191-.237-.13-.359-.191-.237-.13-.359-.19-.237-.13-.359-.191-.237-.13-.358-.191-.238-.13-.36-.191-.237-.13-.358-.19-.238-.13-.359-.191-.238-.13-.359-.191-.238-.13-.359-.191-.237-.13-.359-.19-.237-.13-.359-.191-.237-.13-.358-.191-.238-.13-.359-.191-.237-.13-.359-.19-.237-.13-.359-.191-.237-.13-.359-.191-.237-.13-.359-.191-.237-.13-.358-.19-.238-.13-.359-.191-.237-.13-.359-.191-.237-.13-.359-.191-.237-.13-.359-.19-.237-.13-.359-.191-.237-.13-.358-.191-.238-.13-.359-.191-.237-.13-.359-.19-.237-.13-.359-.191-.237-.13-.359-.191-.237-.13-.359-.191-.237-.13-.358-.19-.238-.13-.359-.191-.238-.13-.359-.191-.238-.13-.359-.191-.238-.13-.359-.191-.237-.13-.359-.19-.237-.13-.358-.19-.238-.131-.36-.191-.237-.13-.358-.191-.238-.13-.359-.191-.237-.13-.359-.191-.237-.13-.359-.191-.237-.13-.358-.19-.238-.13-.36-.191-.237-.13-.358-.19-.238-.131-.359-.191-.237-.13-.359-.191a25.438,25.438,0,0,0-11.9-2.7A24.689,24.689,0,0,0,648.833,23.8a24.167,24.167,0,0,0-7.492,9.736,34.115,34.115,0,0,0-3.121,13.617l0,68.7,0,.092a34.371,34.371,0,0,0,3.094,13.72,23.941,23.941,0,0,0,7.485,9.61,18.69,18.69,0,0,0,3.593,2.218c.113.059.223.121.338.179s.238.13.359.191.237.13.359.19.237.13.359.191.237.13.359.191.237.13.359.191.237.13.358.19.238.13.359.191.237.13.359.191.237.13.359.191.237.13.359.191.237.13.359.19.237.13.358.191.238.13.359.191.238.13.359.19.237.13.359.191.237.13.359.191.237.13.359.191.237.13.358.19.238.13.359.191.238.13.359.191.237.13.359.191.237.13.359.19.237.13.359.191.237.13.358.191.238.13.359.191.238.13.359.19.238.13.359.191.237.13.359.191.237.13.359.191.237.13.359.19.237.13.359.191.237.13.358.191.238.13.359.191.237.13.359.19.237.13.359.191.237.13.359.191.237.13.359.191.237.13.358.19.238.13.359.191.238.13.359.19.237.13.359.191.237.13.359.191.237.13.359.191.237.13.358.191.238.13.359.191.238.13.359.19c.084.044.162.1.247.14a25.234,25.234,0,0,0,12.623,2.959c6.068,0,11.063-1.528,14.848-4.541a24.348,24.348,0,0,0,7.616-9.552,34.448,34.448,0,0,0,3.121-13.779l0-18.867h-.359v-.191h-.359v-.191h-.358v-.19h-.359v-.191H705.9v-.191h-.359v-.19h-.359v-.191h-.359v-.191h-.359v-.191h-.358v-.19h-.359v-.191h-.359v-.191h-.359v-.19h-.359v-.191h-.359v-.191h-.358v-.191h-.359v-.19h-.359v-.191h-.359v-.191h-.359v-.19h-.359V102.8H699.8v-.191h-.358v-.191h-.359v-.19h-.359v-.191h-.359v-.191H698v-.191h-.359v-.19h-.358v-.191h-.359v-.191h-.359v-.191h-.359v-.19h-.359v-.191h-.359v-.191h-.359v-.19h-.358v-.191h-.359V99.75h-.359V99.56H693.7v-.19h-.359v-.191h-.359v-.191h-.358V98.8h-.359v-.191H691.9v-.191h-.359v-.191h-.359v-.19h-.359v-.191h-.359v-.191h-.358v-.19h-.359v-.191h-.359V97.08H679.176V71.94h.153v.19h.359v.191h.359v.191h.358v.19h.359v.191h.359v.191h.359v.191h.359v.19h.359v.191h.359v.191h.358v.19h.359v.191h.359v.191h.359v.191h.359v.19h.359v.191h.358v.191h.359v.19h.359v.191h.359v.191h21.547V56.98l0-.1A34.035,34.035,0,0,0,704.6,43.326Z" transform="translate(-18.744 -7.502)"/><polygon class="cls-2" points="762.259 22.782 762.259 22.591 761.9 22.591 761.9 22.401 761.541 22.401 761.541 22.21 761.183 22.21 761.183 22.019 760.824 22.019 760.824 21.828 760.465 21.828 760.465 21.638 760.106 21.638 760.106 21.447 759.747 21.447 759.747 21.256 759.388 21.256 759.388 21.065 759.03 21.065 759.03 20.875 758.671 20.875 758.671 20.684 758.312 20.684 758.312 20.493 757.953 20.493 757.953 20.303 757.594 20.303 757.594 20.112 757.235 20.112 757.235 19.921 756.876 19.921 756.876 19.73 756.518 19.73 756.518 19.54 756.159 19.54 756.159 19.349 755.8 19.349 755.8 19.158 755.441 19.158 755.441 18.968 755.082 18.968 755.082 18.777 754.723 18.777 754.723 18.586 754.365 18.586 754.365 18.395 754.006 18.395 754.006 18.205 753.647 18.205 753.647 18.014 753.288 18.014 753.288 17.823 752.929 17.823 752.929 17.632 752.57 17.632 752.57 17.442 752.212 17.442 752.212 17.251 751.853 17.251 751.853 17.06 751.494 17.06 751.494 16.869 751.135 16.869 751.135 16.679 750.776 16.679 750.776 16.488 750.417 16.488 750.417 16.297 750.059 16.297 750.059 16.106 749.7 16.106 749.7 15.916 749.341 15.916 749.341 15.725 748.982 15.725 748.982 15.534 748.623 15.534 748.623 15.343 748.264 15.343 748.264 15.153 747.905 15.153 747.905 14.962 747.547 14.962 747.547 14.771 747.188 14.771 747.188 14.58 746.829 14.58 746.829 14.39 746.47 14.39 746.47 14.199 746.111 14.199 746.111 14.008 745.752 14.008 745.752 13.817 745.394 13.817 745.394 13.627 745.035 13.627 745.035 13.436 744.676 13.436 744.676 13.245 744.317 13.245 744.317 13.054 721.661 13.054 721.661 17.251 721.433 17.251 721.433 17.06 721.074 17.06 721.074 16.869 720.715 16.869 720.715 16.679 720.357 16.679 720.357 16.488 719.998 16.488 719.998 16.297 719.639 16.297 719.639 16.106 719.28 16.106 719.28 15.916 718.921 15.916 718.921 15.725 718.562 15.725 718.562 15.534 718.203 15.534 718.203 15.343 717.844 15.343 717.844 15.153 717.485 15.153 717.485 14.962 717.127 14.962 717.127 14.771 716.768 14.771 716.768 14.58 716.409 14.58 716.409 14.39 716.05 14.39 716.05 14.199 715.691 14.199 715.691 14.008 715.332 14.008 715.332 13.817 714.973 13.817 714.973 13.627 714.615 13.627 714.615 13.436 714.256 13.436 714.256 13.245 713.897 13.245 713.897 13.054 691.241 13.054 691.241 135.049 691.6 135.049 691.6 135.24 691.959 135.24 691.959 135.431 692.317 135.431 692.317 135.621 692.676 135.621 692.676 135.812 693.035 135.812 693.035 136.003 693.394 136.003 693.394 136.194 693.753 136.194 693.753 136.384 694.112 136.384 694.112 136.575 694.471 136.575 694.471 136.766 694.829 136.766 694.829 136.957 695.188 136.957 695.188 137.147 695.547 137.147 695.547 137.338 695.906 137.338 695.906 137.529 696.265 137.529 696.265 137.72 696.624 137.72 696.624 137.91 696.982 137.91 696.982 138.101 697.341 138.101 697.341 138.292 697.7 138.292 697.7 138.483 698.059 138.483 698.059 138.673 698.418 138.673 698.418 138.864 698.777 138.864 698.777 139.055 699.136 139.055 699.136 139.246 699.494 139.246 699.494 139.436 699.853 139.436 699.853 139.627 700.212 139.627 700.212 139.818 700.571 139.818 700.571 140.009 700.93 140.009 700.93 140.199 701.289 140.199 701.289 140.39 701.647 140.39 701.647 140.581 702.006 140.581 702.006 140.772 702.365 140.772 702.365 140.962 702.724 140.962 702.724 141.153 703.083 141.153 703.083 141.344 703.442 141.344 703.442 141.535 703.801 141.535 703.801 141.725 704.16 141.725 704.16 141.916 704.519 141.916 704.519 142.107 704.877 142.107 704.877 142.298 705.236 142.298 705.236 142.488 705.595 142.488 705.595 142.679 705.954 142.679 705.954 142.87 706.313 142.87 706.313 143.06 706.672 143.06 706.672 143.251 707.031 143.251 707.031 143.442 707.39 143.442 707.39 143.633 707.749 143.633 707.749 143.823 708.107 143.823 708.107 144.014 708.466 144.014 708.466 144.205 708.825 144.205 708.825 144.395 709.184 144.395 709.184 144.586 709.543 144.586 709.543 144.777 732.199 144.777 732.199 140.581 732.426 140.581 732.426 140.772 732.785 140.772 732.785 140.962 733.144 140.962 733.144 141.153 733.503 141.153 733.503 141.344 733.862 141.344 733.862 141.535 734.22 141.535 734.22 141.725 734.579 141.725 734.579 141.916 734.938 141.916 734.938 142.107 735.297 142.107 735.297 142.298 735.656 142.298 735.656 142.488 736.015 142.488 736.015 142.679 736.374 142.679 736.374 142.87 736.732 142.87 736.732 143.06 737.091 143.06 737.091 143.251 737.45 143.251 737.45 143.442 737.809 143.442 737.809 143.633 738.168 143.633 738.168 143.823 738.527 143.823 738.527 144.014 738.885 144.014 738.885 144.205 739.244 144.205 739.244 144.395 739.603 144.395 739.603 144.586 739.962 144.586 739.962 144.777 762.618 144.777 762.618 22.782 762.259 22.782"/></g><path class="cls-2" d="M75.984,21.811a25.027,25.027,0,0,0-7.677-9.794A24.094,24.094,0,0,0,53.493,7.5a24.689,24.689,0,0,0-14.972,4.516,22.01,22.01,0,0,0-4.555,4.649c-.028.037-.055.076-.083.112-.06.077-.12.153-.179.231s-.12.153-.179.231-.12.153-.179.231-.12.153-.179.231-.12.153-.179.231-.12.153-.179.231-.12.153-.179.232-.12.153-.179.23-.12.154-.18.232-.12.153-.179.231-.12.153-.179.23-.12.154-.179.232-.12.153-.179.231-.12.153-.179.231-.12.153-.179.231-.12.153-.179.231-.12.153-.179.231-.12.153-.179.231-.12.153-.179.232-.12.153-.179.231-.12.153-.179.231-.12.153-.179.232-.12.153-.179.23-.12.154-.179.232-.12.153-.179.231-.12.153-.179.231-.12.153-.179.231-.12.153-.179.231-.12.153-.179.231-.12.153-.179.231-.12.153-.179.232-.12.153-.179.231-.12.153-.179.231-.12.153-.179.232-.12.153-.179.23-.12.154-.179.232-.12.153-.179.231-.12.153-.178.23-.121.154-.18.232-.12.153-.179.231-.12.153-.179.231-.12.153-.179.231-.12.153-.179.232-.12.153-.179.231-.12.153-.179.231-.11.139-.164.21a26.958,26.958,0,0,0-3.767,6.152A34.115,34.115,0,0,0,18.77,47.157l0,68.652a34.543,34.543,0,0,0,2.1,13.75,23.913,23.913,0,0,0,6.786,9.628c3.525,3.116,8.107,4.631,14.008,4.631a18.961,18.961,0,0,0,12.229-4.53l1.211,3.262H69.942v-.231h.179v-.231H70.3v-.231h.179v-.231h.179V141.4h.179v-.231h.179v-.231H71.2V140.7h.179v-.231h.179v-.231h.179v-.231h.179v-.231h.179v-.231h.179v-.231h.179v-.231h.179v-.231h.179v-.231h.179v-.231h.179v-.231h.179v-.231h.179V137.7H73.7v-.231h.179v-.231h.179V137h.179v-.231h.179v-.231H74.6v-.231h.179v-.231h.179v-.231h.179v-.231h.179v-.231H75.5v-.231h.179v-.231h.179v-.231h.179v-.231h.179v-.231h.179V134h.179v-.231h.179v-.231h.179v-.231h.179v-.231h.179v-.231h.179v-.231h.179v-.231h.179v-.231h.179v-.231h.179v-.231h.179v-.231h.179v-.231h.179V131H78.9v-.231h.179V67.232h-8.6V67h.179v-.231h.179v-.231h.179V66.31H71.2v-.231h.179v-.231h.179v-.231h.179v-.231h.179v-.231h.179v-.231h.179v-.231h.179v-.231h.179V64.23h.179V64h.179v-.231h.179v-.231h.179v-.231h.179v-.231H73.7v-.231h.179v-.231h.179v-.231h.179V62.15h.179v-.231H74.6v-.231h.179v-.231h.179v-.231h.179v-.231h.179v-.231H75.5v-.231h.179V60.3h.179V60.07h.179v-.231h.179v-.231h.179v-.231h.179v-.231h.179v-.231h.179v-.231h.179v-.231h.179v-.231h.179V57.99h.179v-.231h.179v-.231h.179V57.3h.179v-.231h.179v-.231h.179V56.6h.179v-.231H78.9v-.231h.179V35.465l0-.1A34.037,34.037,0,0,0,75.984,21.811Z" transform="translate(-18.744 -7.502)"/><polygon class="cls-2" points="83.147 1.499 82.968 1.499 82.968 1.73 82.788 1.73 82.788 1.961 82.609 1.961 82.609 2.192 82.43 2.192 82.43 2.423 82.251 2.423 82.251 2.654 82.072 2.654 82.072 2.885 81.893 2.885 81.893 3.117 81.713 3.117 81.713 3.348 81.534 3.348 81.534 3.579 81.355 3.579 81.355 3.81 81.176 3.81 81.176 4.041 80.997 4.041 80.997 4.272 80.818 4.272 80.818 4.503 80.638 4.503 80.638 4.734 80.459 4.734 80.459 4.965 80.28 4.965 80.28 5.197 80.101 5.197 80.101 5.428 79.922 5.428 79.922 5.659 79.742 5.659 79.742 5.89 79.563 5.89 79.563 6.121 79.384 6.121 79.384 6.352 79.205 6.352 79.205 6.583 79.026 6.583 79.026 6.814 78.847 6.814 78.847 7.045 78.667 7.045 78.667 7.277 78.488 7.277 78.488 7.508 78.309 7.508 78.309 7.739 78.13 7.739 78.13 7.97 77.951 7.97 77.951 8.201 77.772 8.201 77.772 8.432 77.592 8.432 77.592 8.663 77.413 8.663 77.413 8.894 77.234 8.894 77.234 9.125 77.055 9.125 77.055 9.357 76.876 9.357 76.876 9.588 76.697 9.588 76.697 9.819 76.517 9.819 76.517 10.05 76.338 10.05 76.338 10.281 76.159 10.281 76.159 10.512 75.98 10.512 75.98 10.743 75.801 10.743 75.801 10.974 75.621 10.974 75.621 11.205 75.442 11.205 75.442 11.437 75.263 11.437 75.263 11.668 75.084 11.668 75.084 11.899 74.905 11.899 74.905 12.13 74.726 12.13 74.726 12.361 74.546 12.361 74.546 12.592 74.367 12.592 74.367 12.823 74.188 12.823 74.188 13.054 74.009 13.054 74.009 135.049 118.687 135.049 118.687 134.818 118.866 134.818 118.866 134.587 119.045 134.587 119.045 134.356 119.225 134.356 119.225 134.125 119.404 134.125 119.404 133.894 119.583 133.894 119.583 133.663 119.762 133.663 119.762 133.432 119.941 133.432 119.941 133.2 120.121 133.2 120.121 132.969 120.3 132.969 120.3 132.738 120.479 132.738 120.479 132.507 120.658 132.507 120.658 132.276 120.837 132.276 120.837 132.045 121.016 132.045 121.016 131.814 121.196 131.814 121.196 131.583 121.375 131.583 121.375 131.352 121.554 131.352 121.554 131.12 121.733 131.12 121.733 130.889 121.912 130.889 121.912 130.658 122.091 130.658 122.091 130.427 122.271 130.427 122.271 130.196 122.45 130.196 122.45 129.965 122.629 129.965 122.629 129.734 122.808 129.734 122.808 129.503 122.987 129.503 122.987 129.272 123.166 129.272 123.166 129.04 123.346 129.04 123.346 128.809 123.525 128.809 123.525 128.578 123.704 128.578 123.704 128.347 123.883 128.347 123.883 128.116 124.062 128.116 124.062 127.885 124.242 127.885 124.242 127.654 124.421 127.654 124.421 127.423 124.6 127.423 124.6 127.192 124.779 127.192 124.779 126.96 124.958 126.96 124.958 126.729 125.137 126.729 125.137 126.498 125.317 126.498 125.317 126.267 125.496 126.267 125.496 126.036 125.675 126.036 125.675 125.805 125.854 125.805 125.854 125.574 126.033 125.574 126.033 125.343 126.212 125.343 126.212 125.112 126.392 125.112 126.392 124.88 126.571 124.88 126.571 124.649 126.75 124.649 126.75 124.418 126.929 124.418 126.929 124.187 127.108 124.187 127.108 123.956 127.287 123.956 127.287 123.725 127.467 123.725 127.467 123.494 127.646 123.494 127.646 123.263 127.825 123.263 127.825 100.131 105.803 100.131 105.803 85.459 112.508 85.459 112.508 85.228 112.687 85.228 112.687 84.997 112.866 84.997 112.866 84.766 113.046 84.766 113.046 84.535 113.225 84.535 113.225 84.303 113.404 84.303 113.404 84.072 113.583 84.072 113.583 83.841 113.762 83.841 113.762 83.61 113.941 83.61 113.941 83.379 114.121 83.379 114.121 83.148 114.3 83.148 114.3 82.917 114.479 82.917 114.479 82.686 114.658 82.686 114.658 82.455 114.837 82.455 114.837 82.223 115.017 82.223 115.017 81.992 115.196 81.992 115.196 81.761 115.375 81.761 115.375 81.53 115.554 81.53 115.554 81.299 115.733 81.299 115.733 81.068 115.912 81.068 115.912 80.837 116.092 80.837 116.092 80.606 116.271 80.606 116.271 80.375 116.45 80.375 116.45 80.143 116.629 80.143 116.629 79.912 116.808 79.912 116.808 79.681 116.987 79.681 116.987 79.45 117.167 79.45 117.167 79.219 117.346 79.219 117.346 78.988 117.525 78.988 117.525 78.757 117.704 78.757 117.704 78.526 117.883 78.526 117.883 78.295 118.062 78.295 118.062 78.063 118.242 78.063 118.242 77.832 118.421 77.832 118.421 77.601 118.6 77.601 118.6 77.37 118.779 77.37 118.779 77.139 118.958 77.139 118.958 76.908 119.138 76.908 119.138 76.677 119.317 76.677 119.317 76.446 119.496 76.446 119.496 76.215 119.675 76.215 119.675 75.983 119.854 75.983 119.854 75.752 120.033 75.752 120.033 75.521 120.213 75.521 120.213 75.29 120.392 75.29 120.392 75.059 120.571 75.059 120.571 74.828 120.75 74.828 120.75 74.597 120.929 74.597 120.929 74.366 121.108 74.366 121.108 74.135 121.288 74.135 121.288 73.903 121.467 73.903 121.467 73.672 121.646 73.672 121.646 49.432 105.803 49.432 105.803 36.185 118.687 36.185 118.687 35.954 118.866 35.954 118.866 35.723 119.045 35.723 119.045 35.492 119.225 35.492 119.225 35.261 119.404 35.261 119.404 35.03 119.583 35.03 119.583 34.799 119.762 34.799 119.762 34.568 119.941 34.568 119.941 34.337 120.121 34.337 120.121 34.105 120.3 34.105 120.3 33.874 120.479 33.874 120.479 33.643 120.658 33.643 120.658 33.412 120.837 33.412 120.837 33.181 121.016 33.181 121.016 32.95 121.196 32.95 121.196 32.719 121.375 32.719 121.375 32.488 121.554 32.488 121.554 32.257 121.733 32.257 121.733 32.025 121.912 32.025 121.912 31.794 122.091 31.794 122.091 31.564 122.271 31.564 122.271 31.332 122.45 31.332 122.45 31.101 122.629 31.101 122.629 30.87 122.808 30.87 122.808 30.639 122.987 30.639 122.987 30.408 123.166 30.408 123.166 30.177 123.346 30.177 123.346 29.946 123.525 29.946 123.525 29.714 123.704 29.714 123.704 29.484 123.883 29.484 123.883 29.253 124.062 29.253 124.062 29.021 124.242 29.021 124.242 28.79 124.421 28.79 124.421 28.559 124.6 28.559 124.6 28.328 124.779 28.328 124.779 28.097 124.958 28.097 124.958 27.866 125.137 27.866 125.137 27.634 125.317 27.634 125.317 27.404 125.496 27.404 125.496 27.173 125.675 27.173 125.675 26.942 125.854 26.942 125.854 26.71 126.033 26.71 126.033 26.479 126.212 26.479 126.212 26.248 126.392 26.248 126.392 26.017 126.571 26.017 126.571 25.786 126.75 25.786 126.75 25.555 126.929 25.555 126.929 25.324 127.108 25.324 127.108 25.093 127.287 25.093 127.287 24.862 127.467 24.862 127.467 24.63 127.646 24.63 127.646 24.399 127.825 24.399 127.825 1.268 83.147 1.268 83.147 1.499"/><polygon class="cls-2" points="141.606 1.499 141.426 1.499 141.426 1.73 141.247 1.73 141.247 1.961 141.068 1.961 141.068 2.192 140.889 2.192 140.889 2.423 140.71 2.423 140.71 2.654 140.53 2.654 140.53 2.885 140.351 2.885 140.351 3.117 140.172 3.117 140.172 3.348 139.993 3.348 139.993 3.579 139.814 3.579 139.814 3.81 139.635 3.81 139.635 4.041 139.455 4.041 139.455 4.272 139.276 4.272 139.276 4.503 139.097 4.503 139.097 4.734 138.918 4.734 138.918 4.965 138.739 4.965 138.739 5.197 138.56 5.197 138.56 5.428 138.38 5.428 138.38 5.659 138.201 5.659 138.201 5.89 138.022 5.89 138.022 6.121 137.843 6.121 137.843 6.352 137.664 6.352 137.664 6.583 137.485 6.583 137.485 6.814 137.305 6.814 137.305 7.045 137.126 7.045 137.126 7.277 136.947 7.277 136.947 7.508 136.768 7.508 136.768 7.739 136.589 7.739 136.589 7.97 136.409 7.97 136.409 8.201 136.23 8.201 136.23 8.432 136.051 8.432 136.051 8.663 135.872 8.663 135.872 8.894 135.693 8.894 135.693 9.125 135.514 9.125 135.514 9.357 135.334 9.357 135.334 9.588 135.155 9.588 135.155 9.819 134.976 9.819 134.976 10.05 134.797 10.05 134.797 10.281 134.618 10.281 134.618 10.512 134.439 10.512 134.439 10.743 134.259 10.743 134.259 10.974 134.08 10.974 134.08 11.205 133.901 11.205 133.901 11.437 133.722 11.437 133.722 11.668 133.543 11.668 133.543 11.899 133.364 11.899 133.364 12.13 133.184 12.13 133.184 12.361 133.005 12.361 133.005 12.592 132.826 12.592 132.826 12.823 132.647 12.823 132.647 13.054 132.468 13.054 132.468 36.185 148.628 36.185 148.628 135.049 171.284 135.049 171.284 134.818 171.464 134.818 171.464 134.587 171.643 134.587 171.643 134.356 171.822 134.356 171.822 134.125 172.001 134.125 172.001 133.894 172.18 133.894 172.18 133.663 172.359 133.663 172.359 133.432 172.539 133.432 172.539 133.2 172.718 133.2 172.718 132.969 172.897 132.969 172.897 132.738 173.076 132.738 173.076 132.507 173.255 132.507 173.255 132.276 173.434 132.276 173.434 132.045 173.614 132.045 173.614 131.814 173.793 131.814 173.793 131.583 173.972 131.583 173.972 131.352 174.151 131.352 174.151 131.12 174.33 131.12 174.33 130.889 174.509 130.889 174.509 130.658 174.689 130.658 174.689 130.427 174.868 130.427 174.868 130.196 175.047 130.196 175.047 129.965 175.226 129.965 175.226 129.734 175.405 129.734 175.405 129.503 175.585 129.503 175.585 129.272 175.764 129.272 175.764 129.04 175.943 129.04 175.943 128.809 176.122 128.809 176.122 128.578 176.301 128.578 176.301 128.347 176.48 128.347 176.48 128.116 176.66 128.116 176.66 127.885 176.839 127.885 176.839 127.654 177.018 127.654 177.018 127.423 177.197 127.423 177.197 127.192 177.376 127.192 177.376 126.96 177.555 126.96 177.555 126.729 177.735 126.729 177.735 126.498 177.914 126.498 177.914 126.267 178.093 126.267 178.093 126.036 178.272 126.036 178.272 125.805 178.451 125.805 178.451 125.574 178.63 125.574 178.63 125.343 178.81 125.343 178.81 125.112 178.989 125.112 178.989 124.88 179.168 124.88 179.168 124.649 179.347 124.649 179.347 124.418 179.526 124.418 179.526 124.187 179.706 124.187 179.706 123.956 179.885 123.956 179.885 123.725 180.064 123.725 180.064 123.494 180.243 123.494 180.243 123.263 180.422 123.263 180.422 36.185 187.445 36.185 187.445 35.954 187.624 35.954 187.624 35.723 187.803 35.723 187.803 35.492 187.983 35.492 187.983 35.261 188.162 35.261 188.162 35.03 188.341 35.03 188.341 34.799 188.52 34.799 188.52 34.568 188.699 34.568 188.699 34.337 188.878 34.337 188.878 34.105 189.058 34.105 189.058 33.874 189.237 33.874 189.237 33.643 189.416 33.643 189.416 33.412 189.595 33.412 189.595 33.181 189.774 33.181 189.774 32.95 189.953 32.95 189.953 32.719 190.133 32.719 190.133 32.488 190.312 32.488 190.312 32.257 190.491 32.257 190.491 32.025 190.67 32.025 190.67 31.794 190.849 31.794 190.849 31.564 191.029 31.564 191.029 31.332 191.208 31.332 191.208 31.101 191.387 31.101 191.387 30.87 191.566 30.87 191.566 30.639 191.745 30.639 191.745 30.408 191.924 30.408 191.924 30.177 192.104 30.177 192.104 29.946 192.283 29.946 192.283 29.714 192.462 29.714 192.462 29.484 192.641 29.484 192.641 29.253 192.82 29.253 192.82 29.021 192.999 29.021 192.999 28.79 193.179 28.79 193.179 28.559 193.358 28.559 193.358 28.328 193.537 28.328 193.537 28.097 193.716 28.097 193.716 27.866 193.895 27.866 193.895 27.634 194.075 27.634 194.075 27.404 194.254 27.404 194.254 27.173 194.433 27.173 194.433 26.942 194.612 26.942 194.612 26.71 194.791 26.71 194.791 26.479 194.97 26.479 194.97 26.248 195.15 26.248 195.15 26.017 195.329 26.017 195.329 25.786 195.508 25.786 195.508 25.555 195.687 25.555 195.687 25.324 195.866 25.324 195.866 25.093 196.045 25.093 196.045 24.862 196.225 24.862 196.225 24.63 196.404 24.63 196.404 24.399 196.583 24.399 196.583 1.268 141.606 1.268 141.606 1.499"/><polygon class="cls-2" points="253.772 1.499 253.593 1.499 253.593 1.73 253.414 1.73 253.414 1.961 253.235 1.961 253.235 2.192 253.056 2.192 253.056 2.423 252.877 2.423 252.877 2.654 252.697 2.654 252.697 2.885 252.518 2.885 252.518 3.117 252.339 3.117 252.339 3.348 252.16 3.348 252.16 3.579 251.981 3.579 251.981 3.81 251.802 3.81 251.802 4.041 251.622 4.041 251.622 4.272 251.443 4.272 251.443 4.503 251.264 4.503 251.264 4.734 251.085 4.734 251.085 4.965 250.906 4.965 250.906 5.197 250.727 5.197 250.727 5.428 250.547 5.428 250.547 5.659 250.368 5.659 250.368 5.89 250.189 5.89 250.189 6.121 250.01 6.121 250.01 6.352 249.831 6.352 249.831 6.583 249.651 6.583 249.651 6.814 249.472 6.814 249.472 7.045 249.293 7.045 249.293 7.277 249.114 7.277 249.114 7.508 248.935 7.508 248.935 7.739 248.756 7.739 248.756 7.97 248.576 7.97 248.576 8.201 248.397 8.201 248.397 8.432 248.218 8.432 248.218 8.663 248.039 8.663 248.039 8.894 247.86 8.894 247.86 9.125 247.681 9.125 247.681 9.357 247.501 9.357 247.501 9.588 247.322 9.588 247.322 9.819 247.143 9.819 247.143 10.05 246.964 10.05 246.964 10.281 246.785 10.281 246.785 10.512 246.606 10.512 246.606 10.743 246.426 10.743 246.426 10.974 246.247 10.974 246.247 11.205 246.068 11.205 246.068 11.437 245.889 11.437 245.889 11.668 245.71 11.668 245.71 11.899 245.53 11.899 245.53 12.13 245.351 12.13 245.351 12.361 245.172 12.361 245.172 12.592 244.993 12.592 244.993 12.823 244.814 12.823 244.814 13.054 244.635 13.054 244.635 135.049 267.291 135.049 267.291 134.818 267.47 134.818 267.47 134.587 267.649 134.587 267.649 134.356 267.828 134.356 267.828 134.125 268.008 134.125 268.008 133.894 268.187 133.894 268.187 133.663 268.366 133.663 268.366 133.432 268.545 133.432 268.545 133.2 268.724 133.2 268.724 132.969 268.904 132.969 268.904 132.738 269.083 132.738 269.083 132.507 269.262 132.507 269.262 132.276 269.441 132.276 269.441 132.045 269.62 132.045 269.62 131.814 269.799 131.814 269.799 131.583 269.979 131.583 269.979 131.352 270.158 131.352 270.158 131.12 270.337 131.12 270.337 130.889 270.516 130.889 270.516 130.658 270.695 130.658 270.695 130.427 270.874 130.427 270.874 130.196 271.054 130.196 271.054 129.965 271.233 129.965 271.233 129.734 271.412 129.734 271.412 129.503 271.591 129.503 271.591 129.272 271.77 129.272 271.77 129.04 271.949 129.04 271.949 128.809 272.129 128.809 272.129 128.578 272.308 128.578 272.308 128.347 272.487 128.347 272.487 128.116 272.666 128.116 272.666 127.885 272.845 127.885 272.845 127.654 273.025 127.654 273.025 127.423 273.204 127.423 273.204 127.192 273.383 127.192 273.383 126.96 273.562 126.96 273.562 126.729 273.741 126.729 273.741 126.498 273.92 126.498 273.92 126.267 274.1 126.267 274.1 126.036 274.279 126.036 274.279 125.805 274.458 125.805 274.458 125.574 274.637 125.574 274.637 125.343 274.816 125.343 274.816 125.112 274.995 125.112 274.995 124.88 275.175 124.88 275.175 124.649 275.354 124.649 275.354 124.418 275.533 124.418 275.533 124.187 275.712 124.187 275.712 123.956 275.891 123.956 275.891 123.725 276.07 123.725 276.07 123.494 276.25 123.494 276.25 123.263 276.429 123.263 276.429 1.268 253.772 1.268 253.772 1.499"/><polygon class="cls-2" points="333.621 1.499 333.441 1.499 333.441 1.73 333.262 1.73 333.262 1.961 333.083 1.961 333.083 2.192 332.904 2.192 332.904 2.423 332.725 2.423 332.725 2.654 332.546 2.654 332.546 2.885 332.366 2.885 332.366 3.117 332.187 3.117 332.187 3.348 332.008 3.348 332.008 3.579 331.829 3.579 331.829 3.81 331.65 3.81 331.65 4.041 331.47 4.041 331.47 4.272 331.291 4.272 331.291 4.503 331.112 4.503 331.112 4.734 330.933 4.734 330.933 4.965 330.754 4.965 330.754 5.197 330.575 5.197 330.575 5.428 330.395 5.428 330.395 5.659 330.216 5.659 330.216 5.89 330.037 5.89 330.037 6.121 329.858 6.121 329.858 6.352 329.679 6.352 329.679 6.583 329.5 6.583 329.5 6.814 329.32 6.814 329.32 7.045 329.141 7.045 329.141 7.277 328.962 7.277 328.962 7.508 328.783 7.508 328.783 7.739 328.604 7.739 328.604 7.97 328.425 7.97 328.425 8.201 328.245 8.201 328.245 8.432 328.066 8.432 328.066 8.663 327.887 8.663 327.887 8.894 327.708 8.894 327.708 9.125 327.529 9.125 327.529 9.357 327.349 9.357 327.349 9.588 327.17 9.588 327.17 9.819 326.991 9.819 326.991 10.05 326.812 10.05 326.812 10.281 326.633 10.281 326.633 10.512 326.454 10.512 326.454 10.743 326.274 10.743 326.274 10.974 326.095 10.974 326.095 11.205 325.916 11.205 325.916 11.437 325.737 11.437 325.737 11.668 325.558 11.668 325.558 11.899 325.379 11.899 325.379 12.13 325.199 12.13 325.199 12.361 325.02 12.361 325.02 12.592 324.841 12.592 324.841 12.823 324.662 12.823 324.662 13.054 324.483 13.054 324.483 19.458 319.496 1.268 299.398 1.268 299.398 1.499 299.219 1.499 299.219 1.73 299.04 1.73 299.04 1.961 298.861 1.961 298.861 2.192 298.682 2.192 298.682 2.423 298.503 2.423 298.503 2.654 298.323 2.654 298.323 2.885 298.144 2.885 298.144 3.117 297.965 3.117 297.965 3.348 297.786 3.348 297.786 3.579 297.607 3.579 297.607 3.81 297.427 3.81 297.427 4.041 297.248 4.041 297.248 4.272 297.069 4.272 297.069 4.503 296.89 4.503 296.89 4.734 296.711 4.734 296.711 4.965 296.532 4.965 296.532 5.197 296.352 5.197 296.352 5.428 296.173 5.428 296.173 5.659 295.994 5.659 295.994 5.89 295.815 5.89 295.815 6.121 295.636 6.121 295.636 6.352 295.457 6.352 295.457 6.583 295.277 6.583 295.277 6.814 295.098 6.814 295.098 7.045 294.919 7.045 294.919 7.277 294.74 7.277 294.74 7.508 294.561 7.508 294.561 7.739 294.382 7.739 294.382 7.97 294.202 7.97 294.202 8.201 294.023 8.201 294.023 8.432 293.844 8.432 293.844 8.663 293.665 8.663 293.665 8.894 293.486 8.894 293.486 9.125 293.306 9.125 293.306 9.357 293.127 9.357 293.127 9.588 292.948 9.588 292.948 9.819 292.769 9.819 292.769 10.05 292.59 10.05 292.59 10.281 292.411 10.281 292.411 10.512 292.231 10.512 292.231 10.743 292.052 10.743 292.052 10.974 291.873 10.974 291.873 11.205 291.694 11.205 291.694 11.437 291.515 11.437 291.515 11.668 291.336 11.668 291.336 11.899 291.156 11.899 291.156 12.13 290.977 12.13 290.977 12.361 290.798 12.361 290.798 12.592 290.619 12.592 290.619 12.823 290.44 12.823 290.44 13.054 290.261 13.054 290.261 135.049 311.491 135.049 311.491 134.818 311.67 134.818 311.67 134.587 311.849 134.587 311.849 134.356 312.028 134.356 312.028 134.125 312.207 134.125 312.207 133.894 312.387 133.894 312.387 133.663 312.566 133.663 312.566 133.432 312.745 133.432 312.745 133.2 312.924 133.2 312.924 132.969 313.103 132.969 313.103 132.738 313.283 132.738 313.283 132.507 313.462 132.507 313.462 132.276 313.641 132.276 313.641 132.045 313.82 132.045 313.82 131.814 313.999 131.814 313.999 131.583 314.178 131.583 314.178 131.352 314.358 131.352 314.358 131.12 314.537 131.12 314.537 130.889 314.716 130.889 314.716 130.658 314.895 130.658 314.895 130.427 315.074 130.427 315.074 130.196 315.253 130.196 315.253 129.965 315.433 129.965 315.433 129.734 315.612 129.734 315.612 129.503 315.791 129.503 315.791 129.272 315.97 129.272 315.97 129.04 316.149 129.04 316.149 128.809 316.328 128.809 316.328 128.578 316.508 128.578 316.508 128.347 316.687 128.347 316.687 128.116 316.866 128.116 316.866 127.885 317.045 127.885 317.045 127.654 317.224 127.654 317.224 127.423 317.404 127.423 317.404 127.192 317.583 127.192 317.583 126.96 317.762 126.96 317.762 126.729 317.941 126.729 317.941 126.498 318.12 126.498 318.12 126.267 318.299 126.267 318.299 126.036 318.479 126.036 318.479 125.805 318.658 125.805 318.658 125.574 318.837 125.574 318.837 125.343 319.016 125.343 319.016 125.112 319.195 125.112 319.195 124.88 319.374 124.88 319.374 124.649 319.554 124.649 319.554 124.418 319.733 124.418 319.733 124.187 319.912 124.187 319.912 123.956 320.091 123.956 320.091 123.725 320.27 123.725 320.27 123.494 320.449 123.494 320.449 123.263 320.629 123.263 320.629 116.857 325.616 135.049 345.713 135.049 345.713 134.818 345.892 134.818 345.892 134.587 346.071 134.587 346.071 134.356 346.25 134.356 346.25 134.125 346.43 134.125 346.43 133.894 346.609 133.894 346.609 133.663 346.788 133.663 346.788 133.432 346.967 133.432 346.967 133.2 347.146 133.2 347.146 132.969 347.326 132.969 347.326 132.738 347.505 132.738 347.505 132.507 347.684 132.507 347.684 132.276 347.863 132.276 347.863 132.045 348.042 132.045 348.042 131.814 348.221 131.814 348.221 131.583 348.401 131.583 348.401 131.352 348.58 131.352 348.58 131.12 348.759 131.12 348.759 130.889 348.938 130.889 348.938 130.658 349.117 130.658 349.117 130.427 349.296 130.427 349.296 130.196 349.476 130.196 349.476 129.965 349.655 129.965 349.655 129.734 349.834 129.734 349.834 129.503 350.013 129.503 350.013 129.272 350.192 129.272 350.192 129.04 350.371 129.04 350.371 128.809 350.551 128.809 350.551 128.578 350.73 128.578 350.73 128.347 350.909 128.347 350.909 128.116 351.088 128.116 351.088 127.885 351.267 127.885 351.267 127.654 351.447 127.654 351.447 127.423 351.626 127.423 351.626 127.192 351.805 127.192 351.805 126.96 351.984 126.96 351.984 126.729 352.163 126.729 352.163 126.498 352.342 126.498 352.342 126.267 352.522 126.267 352.522 126.036 352.701 126.036 352.701 125.805 352.88 125.805 352.88 125.574 353.059 125.574 353.059 125.343 353.238 125.343 353.238 125.112 353.417 125.112 353.417 124.88 353.597 124.88 353.597 124.649 353.776 124.649 353.776 124.418 353.955 124.418 353.955 124.187 354.134 124.187 354.134 123.956 354.313 123.956 354.313 123.725 354.492 123.725 354.492 123.494 354.672 123.494 354.672 123.263 354.851 123.263 354.851 1.268 333.621 1.268 333.621 1.499"/><polygon class="cls-2" points="412.039 1.499 411.86 1.499 411.86 1.73 411.681 1.73 411.681 1.961 411.502 1.961 411.502 2.192 411.323 2.192 411.323 2.423 411.144 2.423 411.144 2.654 410.964 2.654 410.964 2.885 410.785 2.885 410.785 3.117 410.606 3.117 410.606 3.348 410.427 3.348 410.427 3.579 410.248 3.579 410.248 3.81 410.069 3.81 410.069 4.041 409.889 4.041 409.889 4.272 409.71 4.272 409.71 4.503 409.531 4.503 409.531 4.734 409.352 4.734 409.352 4.965 409.173 4.965 409.173 5.197 408.994 5.197 408.994 5.428 408.814 5.428 408.814 5.659 408.635 5.659 408.635 5.89 408.456 5.89 408.456 6.121 408.277 6.121 408.277 6.352 408.098 6.352 408.098 6.583 407.919 6.583 407.919 6.814 407.739 6.814 407.739 7.045 407.56 7.045 407.56 7.277 407.381 7.277 407.381 7.508 407.202 7.508 407.202 7.739 407.023 7.739 407.023 7.97 406.843 7.97 406.843 8.201 406.664 8.201 406.664 8.432 406.485 8.432 406.485 8.663 406.306 8.663 406.306 8.894 406.127 8.894 406.127 9.125 405.948 9.125 405.948 9.357 405.768 9.357 405.768 9.588 405.589 9.588 405.589 9.819 405.41 9.819 405.41 10.05 405.231 10.05 405.231 10.281 405.052 10.281 405.052 10.512 404.873 10.512 404.873 10.743 404.693 10.743 404.693 10.974 404.514 10.974 404.514 11.205 404.335 11.205 404.335 11.437 404.156 11.437 404.156 11.668 403.977 11.668 403.977 11.899 403.798 11.899 403.798 12.13 403.618 12.13 403.618 12.361 403.439 12.361 403.439 12.592 403.26 12.592 403.26 12.823 403.081 12.823 403.081 13.054 402.902 13.054 402.902 36.185 419.062 36.185 419.062 135.049 441.718 135.049 441.718 134.818 441.898 134.818 441.898 134.587 442.077 134.587 442.077 134.356 442.256 134.356 442.256 134.125 442.435 134.125 442.435 133.894 442.614 133.894 442.614 133.663 442.793 133.663 442.793 133.432 442.973 133.432 442.973 133.2 443.152 133.2 443.152 132.969 443.331 132.969 443.331 132.738 443.51 132.738 443.51 132.507 443.689 132.507 443.689 132.276 443.868 132.276 443.868 132.045 444.048 132.045 444.048 131.814 444.227 131.814 444.227 131.583 444.406 131.583 444.406 131.352 444.585 131.352 444.585 131.12 444.764 131.12 444.764 130.889 444.943 130.889 444.943 130.658 445.123 130.658 445.123 130.427 445.302 130.427 445.302 130.196 445.481 130.196 445.481 129.965 445.66 129.965 445.66 129.734 445.839 129.734 445.839 129.503 446.018 129.503 446.018 129.272 446.198 129.272 446.198 129.04 446.377 129.04 446.377 128.809 446.556 128.809 446.556 128.578 446.735 128.578 446.735 128.347 446.914 128.347 446.914 128.116 447.094 128.116 447.094 127.885 447.273 127.885 447.273 127.654 447.452 127.654 447.452 127.423 447.631 127.423 447.631 127.192 447.81 127.192 447.81 126.96 447.989 126.96 447.989 126.729 448.169 126.729 448.169 126.498 448.348 126.498 448.348 126.267 448.527 126.267 448.527 126.036 448.706 126.036 448.706 125.805 448.885 125.805 448.885 125.574 449.064 125.574 449.064 125.343 449.244 125.343 449.244 125.112 449.423 125.112 449.423 124.88 449.602 124.88 449.602 124.649 449.781 124.649 449.781 124.418 449.96 124.418 449.96 124.187 450.139 124.187 450.139 123.956 450.319 123.956 450.319 123.725 450.498 123.725 450.498 123.494 450.677 123.494 450.677 123.263 450.856 123.263 450.856 36.185 457.879 36.185 457.879 35.954 458.058 35.954 458.058 35.723 458.237 35.723 458.237 35.492 458.417 35.492 458.417 35.261 458.596 35.261 458.596 35.03 458.775 35.03 458.775 34.799 458.954 34.799 458.954 34.568 459.133 34.568 459.133 34.337 459.312 34.337 459.312 34.105 459.492 34.105 459.492 33.874 459.671 33.874 459.671 33.643 459.85 33.643 459.85 33.412 460.029 33.412 460.029 33.181 460.208 33.181 460.208 32.95 460.387 32.95 460.387 32.719 460.567 32.719 460.567 32.488 460.746 32.488 460.746 32.257 460.925 32.257 460.925 32.025 461.104 32.025 461.104 31.794 461.283 31.794 461.283 31.564 461.463 31.564 461.463 31.332 461.642 31.332 461.642 31.101 461.821 31.101 461.821 30.87 462 30.87 462 30.639 462.179 30.639 462.179 30.408 462.358 30.408 462.358 30.177 462.538 30.177 462.538 29.946 462.717 29.946 462.717 29.714 462.896 29.714 462.896 29.484 463.075 29.484 463.075 29.253 463.254 29.253 463.254 29.021 463.433 29.021 463.433 28.79 463.613 28.79 463.613 28.559 463.792 28.559 463.792 28.328 463.971 28.328 463.971 28.097 464.15 28.097 464.15 27.866 464.329 27.866 464.329 27.634 464.509 27.634 464.509 27.404 464.688 27.404 464.688 27.173 464.867 27.173 464.867 26.942 465.046 26.942 465.046 26.71 465.225 26.71 465.225 26.479 465.404 26.479 465.404 26.248 465.584 26.248 465.584 26.017 465.763 26.017 465.763 25.786 465.942 25.786 465.942 25.555 466.121 25.555 466.121 25.324 466.3 25.324 466.3 25.093 466.479 25.093 466.479 24.862 466.659 24.862 466.659 24.63 466.838 24.63 466.838 24.399 467.017 24.399 467.017 1.268 412.039 1.268 412.039 1.499"/><path class="cls-2" d="M549.68,21.811A25.027,25.027,0,0,0,542,12.017,24.094,24.094,0,0,0,527.189,7.5a24.689,24.689,0,0,0-14.972,4.516,22.01,22.01,0,0,0-4.555,4.649c-.028.037-.055.076-.083.112-.06.077-.12.153-.179.231s-.12.153-.179.231-.12.153-.179.231-.12.153-.179.231-.12.153-.179.231-.12.153-.179.231-.12.153-.179.232-.12.153-.179.23-.12.154-.18.232-.12.153-.179.231-.12.153-.179.23-.12.154-.179.232-.12.153-.179.231-.12.153-.179.231-.12.153-.179.231-.12.153-.179.231-.12.153-.179.231-.12.153-.179.231-.12.153-.179.232-.12.153-.179.231-.12.153-.179.231-.12.153-.179.232-.12.153-.179.23-.12.154-.179.232-.12.153-.179.231-.12.153-.179.231-.12.153-.179.231-.12.153-.179.231-.12.153-.179.231-.12.153-.179.231-.12.153-.179.232-.12.153-.179.231-.12.153-.179.231-.12.153-.179.232-.12.153-.179.23-.12.154-.179.232-.12.153-.179.231-.12.153-.178.23-.121.154-.18.232-.12.153-.179.231-.12.153-.179.231-.12.153-.179.231-.12.153-.179.232-.12.153-.179.231-.12.153-.179.231-.11.139-.164.21a26.958,26.958,0,0,0-3.767,6.152,34.115,34.115,0,0,0-3.121,13.617l0,68.7,0,.092a34.371,34.371,0,0,0,3.094,13.72,23.941,23.941,0,0,0,7.485,9.61c3.786,3.014,8.834,4.541,15.006,4.541,6.068,0,11.063-1.528,14.848-4.541a24.269,24.269,0,0,0,5.417-5.648c.058-.072.113-.147.17-.22s.119-.154.179-.231.119-.154.179-.231.119-.155.179-.232.119-.154.179-.231.119-.154.179-.231.119-.154.179-.231.119-.154.179-.231.119-.154.179-.231.119-.155.179-.232.119-.154.179-.231.119-.154.179-.23.119-.155.18-.232.119-.154.179-.231.119-.154.179-.231.119-.154.179-.231.119-.154.179-.231.119-.154.179-.231.119-.154.179-.231.119-.154.179-.231.119-.154.178-.23.12-.155.18-.232.119-.154.179-.231.119-.154.179-.231.119-.154.179-.231.119-.154.179-.231.119-.155.179-.232.119-.154.179-.231.119-.154.179-.231.119-.154.179-.231.119-.155.179-.232.119-.154.179-.231.119-.154.179-.231.119-.154.179-.231.119-.154.179-.23.119-.155.18-.232.119-.154.179-.231.119-.154.179-.231.119-.154.178-.23.12-.155.18-.232.119-.154.179-.231.119-.154.179-.231l.066-.079a24.554,24.554,0,0,0,3.756-5.916,34.446,34.446,0,0,0,3.121-13.778l0-68.695,0-.1A34.037,34.037,0,0,0,549.68,21.811Z" transform="translate(-18.744 -7.502)"/><path class="cls-2" d="M603,9h-.179v.231h-.179v.231h-.179v.231h-.179v.231H602.1v.231h-.179v.231h-.179v.231h-.179v.231h-.179v.231H601.2v.231h-.179v.231h-.179v.231h-.179V12h-.179v.231h-.179v.231h-.179V12.7h-.179v.231h-.179v.231h-.179v.231h-.179v.231h-.179v.231h-.179v.231h-.179v.231H598.7v.231h-.179v.231h-.179v.231h-.179v.231h-.179v.231H597.8V15.7h-.179v.231h-.179v.231h-.179V16.4h-.128V8.769H574.478V9H574.3v.231h-.179v.231h-.179v.231h-.179v.231h-.179v.231H573.4v.231h-.179v.231h-.179v.231h-.179v.231h-.179v.231h-.179v.231h-.179v.231h-.179V12h-.179v.231h-.179v.231h-.179V12.7h-.179v.231h-.179v.231h-.179v.231h-.179v.231h-.179v.231h-.179v.231h-.179v.231h-.179v.231H570v.231h-.179v.231h-.179v.231h-.179v.231h-.179V15.7H569.1v.231h-.179v.231h-.179V16.4h-.179v.231h-.179v.231h-.179v.231h-.179v.231h-.179v.231h-.179v.231h-.179v.231h-.179v.231h-.179v.231h-.179v.231h-.179v.231h-.179v.231h-.179V19.4h-.179v.231h-.179v.231h-.179v.231H565.7v.231h-.179v.231h-.179v95.3l0,.092a34.375,34.375,0,0,0,3.094,13.72,23.938,23.938,0,0,0,7.485,9.61c3.786,3.013,8.834,4.541,15.006,4.541,6.068,0,11.063-1.528,14.848-4.541a24.261,24.261,0,0,0,5.417-5.648c.058-.072.113-.147.17-.22s.119-.154.179-.231.119-.154.179-.231.119-.155.179-.232.119-.154.179-.231.12-.154.18-.231.118-.154.179-.231.119-.154.179-.231.12-.154.179-.231.119-.155.179-.232.119-.154.179-.231.118-.154.178-.23.12-.155.18-.232.119-.154.179-.231.119-.154.179-.231.119-.154.179-.231.118-.154.179-.231.119-.154.179-.231.119-.154.179-.231.119-.154.179-.231.118-.154.179-.23.119-.155.179-.232.119-.154.179-.231.118-.154.179-.231.119-.154.179-.231.12-.154.179-.231.119-.155.179-.232.119-.154.179-.231.119-.154.179-.231.119-.154.179-.231.12-.155.179-.232.119-.154.179-.231.119-.154.179-.231.12-.154.179-.231.119-.154.179-.23.12-.155.179-.232.119-.154.179-.231.12-.154.18-.231.118-.154.178-.23.12-.155.18-.232.119-.154.179-.231.119-.154.179-.231c.021-.027.044-.052.065-.079a24.555,24.555,0,0,0,3.756-5.916,34.446,34.446,0,0,0,3.121-13.778l0-95.391H603Z" transform="translate(-18.744 -7.502)"/><path class="cls-2" d="M695.434,21.811a25.027,25.027,0,0,0-7.677-9.794A24.094,24.094,0,0,0,672.943,7.5a24.689,24.689,0,0,0-14.972,4.516,22,22,0,0,0-4.555,4.649c-.028.037-.055.076-.083.112-.06.077-.12.153-.179.231s-.12.153-.179.231-.12.153-.179.231-.12.153-.179.231-.12.153-.179.231-.12.153-.179.231-.12.153-.179.232-.12.153-.179.23-.12.154-.179.232-.12.153-.179.231-.12.153-.179.23-.12.154-.179.232-.12.153-.179.231-.12.153-.179.231-.12.153-.179.231-.12.153-.179.231-.12.153-.179.231-.12.153-.179.231-.12.153-.179.232-.12.153-.179.231-.12.153-.179.231-.12.153-.179.232-.12.153-.179.23-.12.154-.179.232-.12.153-.179.231-.12.153-.179.231-.12.153-.179.231-.12.153-.179.231-.12.153-.179.231-.12.153-.179.231-.12.153-.179.232-.12.153-.179.231-.12.153-.179.231-.12.153-.179.232-.12.153-.179.23-.12.154-.179.232-.12.153-.179.231-.12.153-.179.23-.12.154-.179.232-.12.153-.179.231-.12.153-.179.231-.12.153-.179.231-.12.153-.179.232-.12.153-.179.231-.12.153-.179.231-.11.139-.164.21a26.959,26.959,0,0,0-3.767,6.152,34.115,34.115,0,0,0-3.121,13.617l0,68.7,0,.092a34.371,34.371,0,0,0,3.094,13.72,23.941,23.941,0,0,0,7.485,9.61c3.786,3.014,8.834,4.541,15.006,4.541,6.068,0,11.063-1.528,14.848-4.541a24.261,24.261,0,0,0,5.417-5.648c.058-.072.113-.147.17-.22s.119-.154.179-.231.119-.154.179-.231.119-.155.179-.232.119-.154.179-.231.12-.154.18-.231.118-.154.179-.231.119-.154.179-.231.12-.154.179-.231.119-.155.179-.232.119-.154.179-.231.118-.154.178-.23.12-.155.18-.232.119-.154.179-.231.119-.154.179-.231.119-.154.179-.231.118-.154.179-.231.119-.154.179-.231.119-.154.179-.231.119-.154.179-.231.118-.154.179-.23.119-.155.179-.232.119-.154.179-.231.118-.154.179-.231.119-.154.179-.231.12-.154.179-.231.119-.155.179-.232.119-.154.179-.231.119-.154.179-.231.119-.154.179-.231.12-.155.179-.232.119-.154.179-.231.119-.154.179-.231.12-.154.179-.231.119-.154.179-.23.12-.155.179-.232.119-.154.179-.231.12-.154.18-.231.118-.154.178-.23.12-.155.18-.232.119-.154.179-.231.119-.154.179-.231c.021-.027.044-.052.065-.079a24.555,24.555,0,0,0,3.756-5.916,34.446,34.446,0,0,0,3.121-13.778l0-18.867H676.983v.231H676.8v.231h-.179v.231h-.179v.231h-.179v.231h-.179v.231h-.179v.231h-.179v.231h-.179v.231h-.179V87.6h-.179v.231h-.179v.231h-.179V88.3h-.179v.231h-.179v.231H674.3v.231h-.179v.231h-.179v.231h-.179v.231h-.179v.231H673.4v.231h-.179v.231h-.179v.231h-.179v.231h-.179v.231H672.5V91.3h-.179v.231h-.179v.231h-.179V92h-.179v.231h-.179v.231h-.179v.231h-.179v.231h-.179v.231h-.179v.231h-.179v.231h-.179v.231h-.179v.231h-.179v.231h-.163V66.027h19.38V65.8h.179v-.231h.179v-.231h.179V65.1h.179v-.231h.179V64.64h.179v-.231h.179v-.231h.179v-.231H691v-.231h.179v-.231h.179v-.231h.179v-.231h.179v-.231h.179V62.56h.179v-.231h.179V62.1h.179v-.231h.179v-.231h.179V61.4h.179v-.231h.179v-.231h.179v-.231h.179V60.48h.179v-.231h.179v-.231h.179v-.231h.179v-.231h.179v-.231h.179v-.231h.179v-.231h.179v-.231h.179V58.4h.179v-.231h.179v-.231h.179v-.231h.179v-.231h.179v-.231h.179v-.231h.179v-.231h.179v-.231h.179V56.32h.179v-.231h.179v-.231h.179v-.231h.179V55.4h.179v-.231h.179v-.231h.179V54.7h.179v-.231h.179V54.24h.179V35.465l0-.1A34.037,34.037,0,0,0,695.434,21.811Z" transform="translate(-18.744 -7.502)"/><polygon class="cls-2" points="753.455 1.268 730.799 1.268 730.799 1.499 730.619 1.499 730.619 1.73 730.44 1.73 730.44 1.961 730.261 1.961 730.261 2.192 730.082 2.192 730.082 2.423 729.903 2.423 729.903 2.654 729.723 2.654 729.723 2.885 729.544 2.885 729.544 3.117 729.365 3.117 729.365 3.348 729.186 3.348 729.186 3.579 729.007 3.579 729.007 3.81 728.828 3.81 728.828 4.041 728.648 4.041 728.648 4.272 728.469 4.272 728.469 4.503 728.29 4.503 728.29 4.734 728.111 4.734 728.111 4.965 727.932 4.965 727.932 5.197 727.753 5.197 727.753 5.428 727.573 5.428 727.573 5.659 727.394 5.659 727.394 5.89 727.215 5.89 727.215 6.121 727.036 6.121 727.036 6.352 726.857 6.352 726.857 6.583 726.677 6.583 726.677 6.814 726.498 6.814 726.498 7.045 726.319 7.045 726.319 7.277 726.14 7.277 726.14 7.508 725.961 7.508 725.961 7.739 725.782 7.739 725.782 7.97 725.603 7.97 725.603 8.201 725.423 8.201 725.423 8.432 725.244 8.432 725.244 8.663 725.065 8.663 725.065 8.894 724.886 8.894 724.886 9.125 724.707 9.125 724.707 9.357 724.527 9.357 724.527 9.588 724.348 9.588 724.348 9.819 724.169 9.819 724.169 10.05 723.99 10.05 723.99 10.281 723.811 10.281 723.811 10.512 723.631 10.512 723.631 10.743 723.452 10.743 723.452 10.974 723.273 10.974 723.273 11.205 723.094 11.205 723.094 11.437 723.035 11.437 723.035 1.268 700.379 1.268 700.379 1.499 700.199 1.499 700.199 1.73 700.021 1.73 700.021 1.961 699.841 1.961 699.841 2.192 699.663 2.192 699.663 2.423 699.483 2.423 699.483 2.654 699.304 2.654 699.304 2.885 699.125 2.885 699.125 3.117 698.945 3.117 698.945 3.348 698.767 3.348 698.767 3.579 698.587 3.579 698.587 3.81 698.408 3.81 698.408 4.041 698.229 4.041 698.229 4.272 698.049 4.272 698.049 4.503 697.871 4.503 697.871 4.734 697.691 4.734 697.691 4.965 697.512 4.965 697.512 5.197 697.333 5.197 697.333 5.428 697.154 5.428 697.154 5.659 696.975 5.659 696.975 5.89 696.795 5.89 696.795 6.121 696.617 6.121 696.617 6.352 696.437 6.352 696.437 6.583 696.258 6.583 696.258 6.814 696.079 6.814 696.079 7.045 695.899 7.045 695.899 7.277 695.721 7.277 695.721 7.508 695.541 7.508 695.541 7.739 695.362 7.739 695.362 7.97 695.183 7.97 695.183 8.201 695.003 8.201 695.003 8.432 694.825 8.432 694.825 8.663 694.645 8.663 694.645 8.894 694.467 8.894 694.467 9.125 694.287 9.125 694.287 9.357 694.108 9.357 694.108 9.588 693.929 9.588 693.929 9.819 693.749 9.819 693.749 10.05 693.571 10.05 693.571 10.281 693.391 10.281 693.391 10.512 693.212 10.512 693.212 10.743 693.033 10.743 693.033 10.974 692.853 10.974 692.853 11.205 692.675 11.205 692.675 11.437 692.495 11.437 692.495 11.668 692.316 11.668 692.316 11.899 692.137 11.899 692.137 12.13 691.957 12.13 691.957 12.361 691.779 12.361 691.779 12.592 691.599 12.592 691.599 12.823 691.421 12.823 691.421 13.054 691.241 13.054 691.241 135.049 713.897 135.049 713.897 134.818 714.077 134.818 714.077 134.587 714.255 134.587 714.255 134.356 714.435 134.356 714.435 134.125 714.614 134.125 714.614 133.894 714.793 133.894 714.793 133.663 714.972 133.663 714.972 133.432 715.151 133.432 715.151 133.2 715.331 133.2 715.331 132.969 715.51 132.969 715.51 132.738 715.689 132.738 715.689 132.507 715.869 132.507 715.869 132.276 716.047 132.276 716.047 132.045 716.227 132.045 716.227 131.814 716.406 131.814 716.406 131.583 716.585 131.583 716.585 131.352 716.764 131.352 716.764 131.12 716.943 131.12 716.943 130.889 717.123 130.889 717.123 130.658 717.301 130.658 717.301 130.427 717.481 130.427 717.481 130.196 717.66 130.196 717.66 129.965 717.839 129.965 717.839 129.734 718.018 129.734 718.018 129.503 718.197 129.503 718.197 129.272 718.377 129.272 718.377 129.04 718.556 129.04 718.556 128.809 718.735 128.809 718.735 128.578 718.915 128.578 718.915 128.347 719.093 128.347 719.093 128.116 719.273 128.116 719.273 127.885 719.452 127.885 719.452 127.654 719.631 127.654 719.631 127.423 719.81 127.423 719.81 127.192 719.989 127.192 719.989 126.96 720.169 126.96 720.169 126.729 720.347 126.729 720.347 126.498 720.527 126.498 720.527 126.267 720.706 126.267 720.706 126.036 720.885 126.036 720.885 125.805 721.064 125.805 721.064 125.574 721.243 125.574 721.243 125.343 721.423 125.343 721.423 125.112 721.602 125.112 721.602 124.88 721.661 124.88 721.661 135.049 744.317 135.049 744.317 134.818 744.496 134.818 744.496 134.587 744.675 134.587 744.675 134.356 744.855 134.356 744.855 134.125 745.033 134.125 745.033 133.894 745.213 133.894 745.213 133.663 745.392 133.663 745.392 133.432 745.571 133.432 745.571 133.2 745.75 133.2 745.75 132.969 745.929 132.969 745.929 132.738 746.109 132.738 746.109 132.507 746.287 132.507 746.287 132.276 746.467 132.276 746.467 132.045 746.646 132.045 746.646 131.814 746.825 131.814 746.825 131.583 747.005 131.583 747.005 131.352 747.183 131.352 747.183 131.12 747.363 131.12 747.363 130.889 747.542 130.889 747.542 130.658 747.721 130.658 747.721 130.427 747.901 130.427 747.901 130.196 748.079 130.196 748.079 129.965 748.259 129.965 748.259 129.734 748.438 129.734 748.438 129.503 748.617 129.503 748.617 129.272 748.796 129.272 748.796 129.04 748.975 129.04 748.975 128.809 749.155 128.809 749.155 128.578 749.333 128.578 749.333 128.347 749.513 128.347 749.513 128.116 749.692 128.116 749.692 127.885 749.871 127.885 749.871 127.654 750.051 127.654 750.051 127.423 750.229 127.423 750.229 127.192 750.409 127.192 750.409 126.96 750.588 126.96 750.588 126.729 750.767 126.729 750.767 126.498 750.946 126.498 750.946 126.267 751.125 126.267 751.125 126.036 751.305 126.036 751.305 125.805 751.484 125.805 751.484 125.574 751.663 125.574 751.663 125.343 751.842 125.343 751.842 125.112 752.021 125.112 752.021 124.88 752.201 124.88 752.201 124.649 752.379 124.649 752.379 124.418 752.559 124.418 752.559 124.187 752.738 124.187 752.738 123.956 752.917 123.956 752.917 123.725 753.097 123.725 753.097 123.494 753.275 123.494 753.275 123.263 753.455 123.263 753.455 1.268"/><path class="cls-3" d="M59.2,53.369v-17.9c0-3.169-.634-5.387-2.218-7.288a4.931,4.931,0,0,0-3.485-1.267c-3.01,0-4.436,2.218-5.07,4.278a12.153,12.153,0,0,0-.633,4.278v70.028c0,3.327.792,5.545,2.376,7.288a4.538,4.538,0,0,0,3.327,1.267c3.01,0,4.436-1.9,5.07-4.278a11.069,11.069,0,0,0,.634-4.278V84.422H52.384V70H76.307v57.987H66.168l-2.059-5.545A17.028,17.028,0,0,1,50.8,129.259c-5.545,0-9.347-1.426-12.2-3.961a21.149,21.149,0,0,1-6.021-8.555,31.859,31.859,0,0,1-1.9-12.675v-68.6A31.578,31.578,0,0,1,33.53,22.949a21.81,21.81,0,0,1,6.655-8.714c3.169-2.376,7.605-3.961,13.309-3.961s9.982,1.584,13.15,3.961a22.247,22.247,0,0,1,6.813,8.714,31.578,31.578,0,0,1,2.851,12.516v17.9Z" transform="translate(-18.744 -7.502)"/><path class="cls-3" d="M104.663,11.542H143.8V29.128H121.774V59.706h15.843V78.4H121.774v32H143.8v17.586H104.663Z" transform="translate(-18.744 -7.502)"/><path class="cls-3" d="M163.122,29.128V11.542h49.432V29.128H196.394v98.864H179.283V29.128Z" transform="translate(-18.744 -7.502)"/><path class="cls-3" d="M275.289,11.542H292.4v116.45H275.289Z" transform="translate(-18.744 -7.502)"/><path class="cls-3" d="M338.977,67.311l-1.426-5.387h-.95v66.068H320.915V11.542h15.21l16.635,60.681,1.426,5.387h.95V11.542h15.685v116.45H355.613Z" transform="translate(-18.744 -7.502)"/><path class="cls-3" d="M433.556,29.128V11.542h49.432V29.128H466.828v98.864H449.717V29.128Z" transform="translate(-18.744 -7.502)"/><path class="cls-3" d="M550,104.068a31.727,31.727,0,0,1-2.851,12.675,21.8,21.8,0,0,1-6.813,8.555c-3.169,2.535-7.447,3.961-13.15,3.961s-10.14-1.426-13.309-3.961a21.362,21.362,0,0,1-6.655-8.555,31.727,31.727,0,0,1-2.851-12.675v-68.6a31.578,31.578,0,0,1,2.851-12.516,21.81,21.81,0,0,1,6.655-8.714c3.169-2.376,7.605-3.961,13.309-3.961s9.982,1.584,13.15,3.961a22.247,22.247,0,0,1,6.813,8.714A31.578,31.578,0,0,1,550,35.465Zm-17.111-68.6c0-3.169-.634-5.387-2.218-7.288a4.931,4.931,0,0,0-3.485-1.267c-3.01,0-4.436,2.218-5.07,4.278a12.153,12.153,0,0,0-.633,4.278v68.6c0,3.327.792,5.545,2.376,7.288a4.538,4.538,0,0,0,3.327,1.267c3.01,0,4.436-1.9,5.07-4.278a11.069,11.069,0,0,0,.634-4.278Z" transform="translate(-18.744 -7.502)"/><path class="cls-3" d="M622.88,11.542v92.526a31.727,31.727,0,0,1-2.851,12.675,21.8,21.8,0,0,1-6.813,8.555c-3.169,2.535-7.447,3.961-13.15,3.961s-10.14-1.426-13.309-3.961a21.354,21.354,0,0,1-6.654-8.555,31.714,31.714,0,0,1-2.852-12.675V11.542h17.111v92.526c0,3.327.792,5.545,2.376,7.288a4.538,4.538,0,0,0,3.327,1.267c3.01,0,4.436-1.9,5.07-4.278a11.085,11.085,0,0,0,.633-4.278V11.542Z" transform="translate(-18.744 -7.502)"/><path class="cls-3" d="M695.757,88.066v16a31.727,31.727,0,0,1-2.851,12.675,21.8,21.8,0,0,1-6.813,8.555c-3.169,2.535-7.447,3.961-13.15,3.961s-10.14-1.426-13.309-3.961a21.362,21.362,0,0,1-6.655-8.555,31.727,31.727,0,0,1-2.851-12.675v-68.6a31.578,31.578,0,0,1,2.851-12.516,21.81,21.81,0,0,1,6.655-8.714c3.169-2.376,7.605-3.961,13.309-3.961s9.982,1.584,13.15,3.961a22.247,22.247,0,0,1,6.813,8.714,31.578,31.578,0,0,1,2.851,12.516v16h-16v-16a9.975,9.975,0,0,0-2.536-7.288,5.642,5.642,0,0,0-3.961-1.267c-3.01,0-4.436,2.218-5.228,4.278a17.1,17.1,0,0,0-.792,4.278v68.6a10.927,10.927,0,0,0,2.693,7.288,4.539,4.539,0,0,0,3.327,1.267c3.644,0,5.07-1.9,5.862-4.278a11.084,11.084,0,0,0,.634-4.278v-16Z" transform="translate(-18.744 -7.502)"/><path class="cls-3" d="M752.315,77.292H739.007v50.7H721.9V11.542h17.111V59.706h13.309V11.542h17.111v116.45H752.315Z" transform="translate(-18.744 -7.502)"/></svg>